<mxfile host="app.diagrams.net" agent="Mozilla/5.0 (Macintosh; Intel Mac OS X 10_15_7) AppleWebKit/537.36 (KHTML, like Gecko) Chrome/137.0.0.0 Safari/537.36" version="27.1.6" pages="12">
  <diagram id="z58UkMzLvxZ88Zd8A9Be" name="Overview">
    <mxGraphModel dx="1426" dy="2045" grid="1" gridSize="10" guides="1" tooltips="1" connect="1" arrows="1" fold="1" page="1" pageScale="1" pageWidth="827" pageHeight="1169" math="0" shadow="0">
      <root>
        <mxCell id="0" />
        <mxCell id="1" parent="0" />
        <mxCell id="MFc8TwEXoFbTMnEmnhHI-1" value="Home" style="swimlane;html=1;childLayout=stackLayout;resizeParent=1;resizeParentMax=0;horizontal=0;startSize=20;horizontalStack=0;whiteSpace=wrap;" parent="1" vertex="1">
          <mxGeometry x="130" y="-100" width="1470" height="270" as="geometry" />
        </mxCell>
        <mxCell id="MFc8TwEXoFbTMnEmnhHI-2" value="Patient" style="swimlane;html=1;startSize=20;horizontal=0;dashed=1;dashPattern=8 8;" parent="MFc8TwEXoFbTMnEmnhHI-1" vertex="1">
          <mxGeometry x="20" width="1450" height="270" as="geometry" />
        </mxCell>
        <mxCell id="GOI58p6NCh9ghKnZgoh0-2" value="" style="edgeStyle=orthogonalEdgeStyle;rounded=0;orthogonalLoop=1;jettySize=auto;html=1;" parent="MFc8TwEXoFbTMnEmnhHI-2" source="LoFIVnIxgqHAPjGkEJDm-20" target="GOI58p6NCh9ghKnZgoh0-1" edge="1">
          <mxGeometry relative="1" as="geometry" />
        </mxCell>
        <mxCell id="LoFIVnIxgqHAPjGkEJDm-20" value="" style="ellipse;whiteSpace=wrap;html=1;aspect=fixed;" parent="MFc8TwEXoFbTMnEmnhHI-2" vertex="1">
          <mxGeometry x="35" y="45" width="40" height="40" as="geometry" />
        </mxCell>
        <mxCell id="LoFIVnIxgqHAPjGkEJDm-21" value="Start" style="text;html=1;align=center;verticalAlign=middle;resizable=0;points=[];autosize=1;strokeColor=none;fillColor=none;" parent="MFc8TwEXoFbTMnEmnhHI-2" vertex="1">
          <mxGeometry x="29" y="84" width="50" height="30" as="geometry" />
        </mxCell>
        <mxCell id="SL9IZBJ_y124oKuT5V4R-12" style="edgeStyle=orthogonalEdgeStyle;rounded=0;orthogonalLoop=1;jettySize=auto;html=1;exitX=1;exitY=0.5;exitDx=0;exitDy=0;" parent="MFc8TwEXoFbTMnEmnhHI-2" source="GOI58p6NCh9ghKnZgoh0-1" target="SL9IZBJ_y124oKuT5V4R-11" edge="1">
          <mxGeometry relative="1" as="geometry" />
        </mxCell>
        <mxCell id="GOI58p6NCh9ghKnZgoh0-1" value="&lt;p style=&quot;line-height: 1.2; margin-top: 0pt; margin-bottom: 0pt;&quot; dir=&quot;ltr&quot;&gt;&lt;span style=&quot;font-size: 12pt; font-family: Calibri, sans-serif; background-color: transparent; font-weight: 700; font-variant-numeric: normal; font-variant-east-asian: normal; font-variant-alternates: normal; font-variant-position: normal; font-variant-emoji: normal; vertical-align: baseline; white-space-collapse: preserve;&quot;&gt;A: Self Registration&lt;/span&gt;&lt;/p&gt;&lt;div&gt;&lt;span style=&quot;font-size: 12pt; font-family: Calibri, sans-serif; background-color: transparent; font-weight: 700; font-variant-numeric: normal; font-variant-east-asian: normal; font-variant-alternates: normal; font-variant-position: normal; font-variant-emoji: normal; vertical-align: baseline; white-space-collapse: preserve;&quot;&gt;&lt;br&gt;&lt;/span&gt;&lt;/div&gt;" style="rounded=1;whiteSpace=wrap;html=1;" parent="MFc8TwEXoFbTMnEmnhHI-2" vertex="1">
          <mxGeometry x="114" y="25" width="150" height="80" as="geometry" />
        </mxCell>
        <mxCell id="SL9IZBJ_y124oKuT5V4R-8" style="edgeStyle=orthogonalEdgeStyle;rounded=0;orthogonalLoop=1;jettySize=auto;html=1;exitX=1;exitY=0.5;exitDx=0;exitDy=0;" parent="MFc8TwEXoFbTMnEmnhHI-2" source="kDg5UdHZhAoCI1kqE-FO-1" target="SL9IZBJ_y124oKuT5V4R-5" edge="1">
          <mxGeometry relative="1" as="geometry" />
        </mxCell>
        <mxCell id="SL9IZBJ_y124oKuT5V4R-9" value="Yes" style="edgeLabel;html=1;align=center;verticalAlign=middle;resizable=0;points=[];" parent="SL9IZBJ_y124oKuT5V4R-8" vertex="1" connectable="0">
          <mxGeometry x="-0.1143" y="2" relative="1" as="geometry">
            <mxPoint as="offset" />
          </mxGeometry>
        </mxCell>
        <mxCell id="kDg5UdHZhAoCI1kqE-FO-1" value="&lt;div&gt;Is the&amp;nbsp;&lt;/div&gt;&lt;div&gt;required&amp;nbsp;&lt;/div&gt;&lt;div&gt;drug prescription-only?&lt;/div&gt;" style="rhombus;whiteSpace=wrap;html=1;" parent="MFc8TwEXoFbTMnEmnhHI-2" vertex="1">
          <mxGeometry x="540" y="12" width="120" height="120" as="geometry" />
        </mxCell>
        <mxCell id="kDg5UdHZhAoCI1kqE-FO-8" value="End" style="text;html=1;align=center;verticalAlign=middle;resizable=0;points=[];autosize=1;strokeColor=none;fillColor=none;" parent="MFc8TwEXoFbTMnEmnhHI-2" vertex="1">
          <mxGeometry x="629" y="85" width="40" height="30" as="geometry" />
        </mxCell>
        <mxCell id="SL9IZBJ_y124oKuT5V4R-1" value="&#xa;&lt;span style=&quot;color: rgb(0, 0, 0); font-family: Helvetica; font-size: 12px; font-style: normal; font-variant-ligatures: normal; font-variant-caps: normal; font-weight: 700; letter-spacing: normal; orphans: 2; text-align: center; text-indent: 0px; text-transform: none; widows: 2; word-spacing: 0px; -webkit-text-stroke-width: 0px; white-space: normal; background-color: rgb(236, 236, 236); text-decoration-thickness: initial; text-decoration-style: initial; text-decoration-color: initial; display: inline !important; float: none;&quot;&gt;D. Process Payment&lt;/span&gt;&#xa;&#xa;" style="whiteSpace=wrap;html=1;rounded=1;" parent="MFc8TwEXoFbTMnEmnhHI-2" vertex="1">
          <mxGeometry x="541" y="180" width="120" height="60" as="geometry" />
        </mxCell>
        <mxCell id="SL9IZBJ_y124oKuT5V4R-5" value="" style="ellipse;whiteSpace=wrap;html=1;aspect=fixed;strokeWidth=3;" parent="MFc8TwEXoFbTMnEmnhHI-2" vertex="1">
          <mxGeometry x="750" y="51" width="40" height="40" as="geometry" />
        </mxCell>
        <mxCell id="SL9IZBJ_y124oKuT5V4R-7" value="No" style="edgeStyle=orthogonalEdgeStyle;rounded=0;orthogonalLoop=1;jettySize=auto;html=1;exitX=0.5;exitY=1;exitDx=0;exitDy=0;entryX=0.461;entryY=0;entryDx=0;entryDy=0;entryPerimeter=0;" parent="MFc8TwEXoFbTMnEmnhHI-2" source="kDg5UdHZhAoCI1kqE-FO-1" target="SL9IZBJ_y124oKuT5V4R-1" edge="1">
          <mxGeometry relative="1" as="geometry" />
        </mxCell>
        <mxCell id="SL9IZBJ_y124oKuT5V4R-11" value="&lt;p style=&quot;line-height: 1.2; margin-top: 0pt; margin-bottom: 0pt;&quot; dir=&quot;ltr&quot;&gt;&lt;font face=&quot;Calibri, sans-serif&quot;&gt;&lt;span style=&quot;font-size: 16px; white-space-collapse: preserve;&quot;&gt;&lt;b&gt;Enter name of drug&lt;/b&gt;&lt;/span&gt;&lt;/font&gt;&lt;/p&gt;" style="rounded=1;whiteSpace=wrap;html=1;" parent="MFc8TwEXoFbTMnEmnhHI-2" vertex="1">
          <mxGeometry x="320" y="25" width="150" height="80" as="geometry" />
        </mxCell>
        <mxCell id="SL9IZBJ_y124oKuT5V4R-13" style="edgeStyle=orthogonalEdgeStyle;rounded=0;orthogonalLoop=1;jettySize=auto;html=1;exitX=1;exitY=0.5;exitDx=0;exitDy=0;entryX=0.024;entryY=0.435;entryDx=0;entryDy=0;entryPerimeter=0;" parent="MFc8TwEXoFbTMnEmnhHI-2" source="SL9IZBJ_y124oKuT5V4R-11" target="kDg5UdHZhAoCI1kqE-FO-1" edge="1">
          <mxGeometry relative="1" as="geometry" />
        </mxCell>
        <mxCell id="LoFIVnIxgqHAPjGkEJDm-10" value="Pharmacy" style="swimlane;html=1;childLayout=stackLayout;resizeParent=1;resizeParentMax=0;horizontal=0;startSize=20;horizontalStack=0;whiteSpace=wrap;" parent="1" vertex="1">
          <mxGeometry x="130" y="350" width="1470" height="510" as="geometry" />
        </mxCell>
        <mxCell id="LoFIVnIxgqHAPjGkEJDm-11" value="Pharmacist" style="swimlane;html=1;startSize=20;horizontal=0;" parent="LoFIVnIxgqHAPjGkEJDm-10" vertex="1">
          <mxGeometry x="20" width="1450" height="350" as="geometry" />
        </mxCell>
        <mxCell id="zEUx70_AToAHLV33EFRs-2" value="" style="edgeStyle=orthogonalEdgeStyle;rounded=0;orthogonalLoop=1;jettySize=auto;html=1;" parent="LoFIVnIxgqHAPjGkEJDm-11" source="uOPXvyU8QvOe7ulKXDUi-3" target="zEUx70_AToAHLV33EFRs-1" edge="1">
          <mxGeometry relative="1" as="geometry" />
        </mxCell>
        <mxCell id="uOPXvyU8QvOe7ulKXDUi-3" value="&lt;span style=&quot;font-family: Calibri, sans-serif; font-size: 16px; font-weight: 700; white-space-collapse: preserve;&quot;&gt;C. Prescription Processing&lt;/span&gt;" style="rounded=1;whiteSpace=wrap;html=1;" parent="LoFIVnIxgqHAPjGkEJDm-11" vertex="1">
          <mxGeometry x="50" y="50" width="120" height="60" as="geometry" />
        </mxCell>
        <mxCell id="5X9y_HRD_3aB9LSBdfbt-4" style="edgeStyle=orthogonalEdgeStyle;rounded=0;orthogonalLoop=1;jettySize=auto;html=1;exitX=1;exitY=0.5;exitDx=0;exitDy=0;entryX=0;entryY=0.5;entryDx=0;entryDy=0;" parent="LoFIVnIxgqHAPjGkEJDm-11" source="zEUx70_AToAHLV33EFRs-1" target="5X9y_HRD_3aB9LSBdfbt-1" edge="1">
          <mxGeometry relative="1" as="geometry" />
        </mxCell>
        <mxCell id="zEUx70_AToAHLV33EFRs-1" value="&lt;b&gt;&lt;font style=&quot;font-size: 17px;&quot;&gt;D. Billing&lt;/font&gt;&lt;/b&gt;" style="whiteSpace=wrap;html=1;rounded=1;" parent="LoFIVnIxgqHAPjGkEJDm-11" vertex="1">
          <mxGeometry x="250" y="50" width="120" height="60" as="geometry" />
        </mxCell>
        <mxCell id="pY2IG1z-wTK03OjL8tBm-12" value="" style="edgeStyle=none;curved=1;rounded=0;orthogonalLoop=1;jettySize=auto;html=1;fontSize=12;startSize=8;endSize=8;" edge="1" parent="LoFIVnIxgqHAPjGkEJDm-11" source="5X9y_HRD_3aB9LSBdfbt-1" target="pY2IG1z-wTK03OjL8tBm-11">
          <mxGeometry relative="1" as="geometry" />
        </mxCell>
        <mxCell id="pY2IG1z-wTK03OjL8tBm-13" value="No" style="edgeLabel;html=1;align=center;verticalAlign=middle;resizable=0;points=[];fontSize=12;" vertex="1" connectable="0" parent="pY2IG1z-wTK03OjL8tBm-12">
          <mxGeometry x="-0.3122" y="-1" relative="1" as="geometry">
            <mxPoint as="offset" />
          </mxGeometry>
        </mxCell>
        <mxCell id="5X9y_HRD_3aB9LSBdfbt-1" value="Is the bill&amp;nbsp;&lt;div&gt;covered by&lt;div&gt;&amp;nbsp;insurance&amp;nbsp;&lt;/div&gt;&lt;/div&gt;" style="rhombus;whiteSpace=wrap;html=1;rounded=1;" parent="LoFIVnIxgqHAPjGkEJDm-11" vertex="1">
          <mxGeometry x="430" y="31" width="150" height="98" as="geometry" />
        </mxCell>
        <mxCell id="SL9IZBJ_y124oKuT5V4R-35" style="edgeStyle=orthogonalEdgeStyle;rounded=0;orthogonalLoop=1;jettySize=auto;html=1;exitX=1;exitY=0.5;exitDx=0;exitDy=0;entryX=0;entryY=0.5;entryDx=0;entryDy=0;" parent="LoFIVnIxgqHAPjGkEJDm-11" source="ebsa3QstTuPWrp_IX795-2" target="afF3osxv31I63I3ckYR5-1" edge="1">
          <mxGeometry relative="1" as="geometry" />
        </mxCell>
        <mxCell id="ebsa3QstTuPWrp_IX795-2" value="&#xa;&lt;span style=&quot;color: rgb(0, 0, 0); font-family: Calibri, sans-serif; font-size: 16px; font-style: normal; font-variant-ligatures: normal; font-variant-caps: normal; font-weight: 700; letter-spacing: normal; orphans: 2; text-align: center; text-indent: 0px; text-transform: none; widows: 2; word-spacing: 0px; -webkit-text-stroke-width: 0px; white-space: pre-wrap; background-color: rgb(236, 236, 236); text-decoration-thickness: initial; text-decoration-style: initial; text-decoration-color: initial; display: inline !important; float: none;&quot;&gt;G: Patient Counseling and Education&lt;/span&gt;&#xa;&#xa;" style="rounded=1;whiteSpace=wrap;html=1;" parent="LoFIVnIxgqHAPjGkEJDm-11" vertex="1">
          <mxGeometry x="820" y="38" width="160" height="70" as="geometry" />
        </mxCell>
        <mxCell id="oM6bQlTkFFDLwcXqN5zV-5" value="" style="edgeStyle=none;curved=1;rounded=0;orthogonalLoop=1;jettySize=auto;html=1;fontSize=12;startSize=8;endSize=8;" edge="1" parent="LoFIVnIxgqHAPjGkEJDm-11" source="afF3osxv31I63I3ckYR5-1" target="oM6bQlTkFFDLwcXqN5zV-4">
          <mxGeometry relative="1" as="geometry" />
        </mxCell>
        <mxCell id="afF3osxv31I63I3ckYR5-1" value="&#xa;&lt;span style=&quot;color: rgb(0, 0, 0); font-family: Calibri, sans-serif; font-size: 16px; font-style: normal; font-variant-ligatures: normal; font-variant-caps: normal; font-weight: 700; letter-spacing: normal; orphans: 2; text-align: center; text-indent: 0px; text-transform: none; widows: 2; word-spacing: 0px; -webkit-text-stroke-width: 0px; white-space: pre-wrap; background-color: rgb(236, 236, 236); text-decoration-thickness: initial; text-decoration-style: initial; text-decoration-color: initial; display: inline !important; float: none;&quot;&gt;H: Medication Follow-up and Monitoring&lt;/span&gt;&#xa;&#xa;" style="rounded=1;whiteSpace=wrap;html=1;" parent="LoFIVnIxgqHAPjGkEJDm-11" vertex="1">
          <mxGeometry x="1049" y="35" width="150" height="75" as="geometry" />
        </mxCell>
        <mxCell id="SL9IZBJ_y124oKuT5V4R-38" value="" style="ellipse;whiteSpace=wrap;html=1;rounded=1;strokeWidth=3;" parent="LoFIVnIxgqHAPjGkEJDm-11" vertex="1">
          <mxGeometry x="1390" y="42.5" width="50" height="47.5" as="geometry" />
        </mxCell>
        <mxCell id="SL9IZBJ_y124oKuT5V4R-40" value="End" style="text;html=1;align=center;verticalAlign=middle;resizable=0;points=[];autosize=1;strokeColor=none;fillColor=none;" parent="LoFIVnIxgqHAPjGkEJDm-11" vertex="1">
          <mxGeometry x="1390" y="103" width="40" height="30" as="geometry" />
        </mxCell>
        <mxCell id="oM6bQlTkFFDLwcXqN5zV-4" value="&lt;b&gt;&lt;font style=&quot;font-size: 16px;&quot;&gt;I. Adverse Drug Reaction Management&lt;/font&gt;&lt;/b&gt;" style="whiteSpace=wrap;html=1;rounded=1;" vertex="1" parent="LoFIVnIxgqHAPjGkEJDm-11">
          <mxGeometry x="1240" y="42.5" width="120" height="60" as="geometry" />
        </mxCell>
        <mxCell id="oM6bQlTkFFDLwcXqN5zV-6" style="edgeStyle=none;curved=1;rounded=0;orthogonalLoop=1;jettySize=auto;html=1;exitX=1;exitY=0.5;exitDx=0;exitDy=0;entryX=0.2;entryY=0.589;entryDx=0;entryDy=0;entryPerimeter=0;fontSize=12;startSize=8;endSize=8;" edge="1" parent="LoFIVnIxgqHAPjGkEJDm-11" source="oM6bQlTkFFDLwcXqN5zV-4" target="SL9IZBJ_y124oKuT5V4R-38">
          <mxGeometry relative="1" as="geometry" />
        </mxCell>
        <mxCell id="pY2IG1z-wTK03OjL8tBm-29" style="edgeStyle=orthogonalEdgeStyle;rounded=0;orthogonalLoop=1;jettySize=auto;html=1;exitX=0.5;exitY=0;exitDx=0;exitDy=0;fontSize=12;startSize=8;endSize=8;entryX=0.417;entryY=0.167;entryDx=0;entryDy=0;entryPerimeter=0;" edge="1" parent="LoFIVnIxgqHAPjGkEJDm-11" source="pY2IG1z-wTK03OjL8tBm-11" target="zEUx70_AToAHLV33EFRs-1">
          <mxGeometry relative="1" as="geometry">
            <mxPoint x="705" y="10" as="targetPoint" />
            <Array as="points">
              <mxPoint x="705" y="20" />
              <mxPoint x="300" y="20" />
            </Array>
          </mxGeometry>
        </mxCell>
        <mxCell id="pY2IG1z-wTK03OjL8tBm-31" value="No" style="edgeLabel;html=1;align=center;verticalAlign=middle;resizable=0;points=[];fontSize=12;" vertex="1" connectable="0" parent="pY2IG1z-wTK03OjL8tBm-29">
          <mxGeometry x="-0.0522" y="1" relative="1" as="geometry">
            <mxPoint as="offset" />
          </mxGeometry>
        </mxCell>
        <mxCell id="pY2IG1z-wTK03OjL8tBm-11" value="Is payment&amp;nbsp;&lt;div&gt;confimed?&lt;/div&gt;" style="rhombus;whiteSpace=wrap;html=1;rounded=1;" vertex="1" parent="LoFIVnIxgqHAPjGkEJDm-11">
          <mxGeometry x="630" y="35" width="150" height="98" as="geometry" />
        </mxCell>
        <mxCell id="pY2IG1z-wTK03OjL8tBm-23" style="edgeStyle=none;curved=1;rounded=0;orthogonalLoop=1;jettySize=auto;html=1;exitX=0.5;exitY=0;exitDx=0;exitDy=0;fontSize=12;startSize=8;endSize=8;" edge="1" parent="LoFIVnIxgqHAPjGkEJDm-11" source="5X9y_HRD_3aB9LSBdfbt-1" target="5X9y_HRD_3aB9LSBdfbt-1">
          <mxGeometry relative="1" as="geometry" />
        </mxCell>
        <mxCell id="LoFIVnIxgqHAPjGkEJDm-12" value="Pharmacy Technician" style="swimlane;html=1;startSize=20;horizontal=0;" parent="LoFIVnIxgqHAPjGkEJDm-10" vertex="1">
          <mxGeometry x="20" y="350" width="1450" height="160" as="geometry" />
        </mxCell>
        <mxCell id="pY2IG1z-wTK03OjL8tBm-2" value="&#xa;&lt;span style=&quot;color: rgb(0, 0, 0); font-family: Calibri, sans-serif; font-size: 16px; font-style: normal; font-variant-ligatures: normal; font-variant-caps: normal; font-weight: 700; letter-spacing: normal; orphans: 2; text-align: center; text-indent: 0px; text-transform: none; widows: 2; word-spacing: 0px; -webkit-text-stroke-width: 0px; white-space: pre-wrap; background-color: rgb(236, 236, 236); text-decoration-thickness: initial; text-decoration-style: initial; text-decoration-color: initial; display: inline !important; float: none;&quot;&gt;E: Medication Preparation and Dispensing&lt;/span&gt;&#xa;&#xa;" style="rounded=1;whiteSpace=wrap;html=1;" vertex="1" parent="LoFIVnIxgqHAPjGkEJDm-12">
          <mxGeometry x="450.5" y="10" width="125" height="90" as="geometry" />
        </mxCell>
        <mxCell id="pY2IG1z-wTK03OjL8tBm-14" style="edgeStyle=none;curved=1;rounded=0;orthogonalLoop=1;jettySize=auto;html=1;exitX=0.5;exitY=1;exitDx=0;exitDy=0;entryX=0.452;entryY=-0.022;entryDx=0;entryDy=0;entryPerimeter=0;fontSize=12;startSize=8;endSize=8;" edge="1" parent="LoFIVnIxgqHAPjGkEJDm-10" source="5X9y_HRD_3aB9LSBdfbt-1" target="pY2IG1z-wTK03OjL8tBm-2">
          <mxGeometry relative="1" as="geometry" />
        </mxCell>
        <mxCell id="pY2IG1z-wTK03OjL8tBm-15" value="Yes" style="edgeLabel;html=1;align=center;verticalAlign=middle;resizable=0;points=[];fontSize=12;" vertex="1" connectable="0" parent="pY2IG1z-wTK03OjL8tBm-14">
          <mxGeometry x="-0.0658" y="1" relative="1" as="geometry">
            <mxPoint as="offset" />
          </mxGeometry>
        </mxCell>
        <mxCell id="pY2IG1z-wTK03OjL8tBm-26" style="edgeStyle=orthogonalEdgeStyle;rounded=0;orthogonalLoop=1;jettySize=auto;html=1;exitX=0.5;exitY=1;exitDx=0;exitDy=0;fontSize=12;startSize=8;endSize=8;" edge="1" parent="LoFIVnIxgqHAPjGkEJDm-10" source="pY2IG1z-wTK03OjL8tBm-11" target="pY2IG1z-wTK03OjL8tBm-2">
          <mxGeometry relative="1" as="geometry">
            <mxPoint x="650" y="400" as="targetPoint" />
            <Array as="points">
              <mxPoint x="725" y="405" />
            </Array>
          </mxGeometry>
        </mxCell>
        <mxCell id="pY2IG1z-wTK03OjL8tBm-28" value="Yes" style="edgeLabel;html=1;align=center;verticalAlign=middle;resizable=0;points=[];fontSize=12;" vertex="1" connectable="0" parent="pY2IG1z-wTK03OjL8tBm-26">
          <mxGeometry x="-0.5467" y="-2" relative="1" as="geometry">
            <mxPoint as="offset" />
          </mxGeometry>
        </mxCell>
        <mxCell id="LoFIVnIxgqHAPjGkEJDm-16" value="Health facility" style="swimlane;html=1;childLayout=stackLayout;resizeParent=1;resizeParentMax=0;horizontal=0;startSize=20;horizontalStack=0;whiteSpace=wrap;" parent="1" vertex="1">
          <mxGeometry x="130" y="150" width="1470" height="200" as="geometry" />
        </mxCell>
        <mxCell id="LoFIVnIxgqHAPjGkEJDm-17" value="Prescriber" style="swimlane;html=1;startSize=20;horizontal=0;" parent="LoFIVnIxgqHAPjGkEJDm-16" vertex="1">
          <mxGeometry x="20" width="1450" height="200" as="geometry" />
        </mxCell>
        <mxCell id="zo7YseVFT2ZgFNzBAHzz-5" value="" style="edgeStyle=orthogonalEdgeStyle;rounded=0;orthogonalLoop=1;jettySize=auto;html=1;" parent="LoFIVnIxgqHAPjGkEJDm-17" source="OHhqIteTEnRP82Deqhdj-1" target="zo7YseVFT2ZgFNzBAHzz-4" edge="1">
          <mxGeometry relative="1" as="geometry" />
        </mxCell>
        <mxCell id="OHhqIteTEnRP82Deqhdj-1" value="&lt;p style=&quot;line-height: 1.2; margin-top: 0pt; margin-bottom: 0pt;&quot; dir=&quot;ltr&quot;&gt;&lt;span style=&quot;font-size: 12pt; font-family: Calibri, sans-serif; background-color: transparent; font-weight: 700; font-variant-numeric: normal; font-variant-east-asian: normal; font-variant-alternates: normal; font-variant-position: normal; font-variant-emoji: normal; vertical-align: baseline; white-space-collapse: preserve;&quot;&gt;A: Patient Registration and Data Collection&lt;/span&gt;&lt;/p&gt;&lt;div&gt;&lt;span style=&quot;font-size: 12pt; font-family: Calibri, sans-serif; background-color: transparent; font-weight: 700; font-variant-numeric: normal; font-variant-east-asian: normal; font-variant-alternates: normal; font-variant-position: normal; font-variant-emoji: normal; vertical-align: baseline; white-space-collapse: preserve;&quot;&gt;&lt;br&gt;&lt;/span&gt;&lt;/div&gt;" style="rounded=1;whiteSpace=wrap;html=1;" parent="LoFIVnIxgqHAPjGkEJDm-17" vertex="1">
          <mxGeometry x="119" y="60" width="150" height="80" as="geometry" />
        </mxCell>
        <mxCell id="k42c4vTE9eBuGUdbC--N-4" value="" style="edgeStyle=orthogonalEdgeStyle;rounded=0;orthogonalLoop=1;jettySize=auto;html=1;" parent="LoFIVnIxgqHAPjGkEJDm-17" source="zo7YseVFT2ZgFNzBAHzz-4" target="k42c4vTE9eBuGUdbC--N-1" edge="1">
          <mxGeometry relative="1" as="geometry" />
        </mxCell>
        <mxCell id="zo7YseVFT2ZgFNzBAHzz-4" value="&lt;span style=&quot;font-family: Calibri, sans-serif; font-size: 16px; font-weight: 700; white-space-collapse: preserve;&quot;&gt;B. Prescription Generation&lt;/span&gt;" style="whiteSpace=wrap;html=1;rounded=1;" parent="LoFIVnIxgqHAPjGkEJDm-17" vertex="1">
          <mxGeometry x="310" y="57.5" width="155" height="85" as="geometry" />
        </mxCell>
        <mxCell id="uOPXvyU8QvOe7ulKXDUi-7" style="edgeStyle=orthogonalEdgeStyle;rounded=0;orthogonalLoop=1;jettySize=auto;html=1;exitX=0.5;exitY=0;exitDx=0;exitDy=0;entryX=0.5;entryY=0;entryDx=0;entryDy=0;" parent="LoFIVnIxgqHAPjGkEJDm-17" source="k42c4vTE9eBuGUdbC--N-1" target="zo7YseVFT2ZgFNzBAHzz-4" edge="1">
          <mxGeometry relative="1" as="geometry" />
        </mxCell>
        <mxCell id="uOPXvyU8QvOe7ulKXDUi-8" value="no" style="edgeLabel;html=1;align=center;verticalAlign=middle;resizable=0;points=[];" parent="uOPXvyU8QvOe7ulKXDUi-7" vertex="1" connectable="0">
          <mxGeometry x="-0.187" y="3" relative="1" as="geometry">
            <mxPoint as="offset" />
          </mxGeometry>
        </mxCell>
        <mxCell id="k42c4vTE9eBuGUdbC--N-1" value="&#xa;&lt;b id=&quot;docs-internal-guid-80a414e3-7fff-8887-1734-a7b34acb1453&quot; style=&quot;font-weight:normal;&quot;&gt;&lt;span style=&quot;font-size:12pt;font-family:Calibri,sans-serif;color:#000000;background-color:transparent;font-weight:400;font-style:normal;font-variant:normal;text-decoration:none;vertical-align:baseline;white-space:pre;white-space:pre-wrap;&quot;&gt;Is the prescription accurate?&lt;/span&gt;&lt;/b&gt;&#xa;&#xa;" style="rhombus;whiteSpace=wrap;html=1;rounded=1;" parent="LoFIVnIxgqHAPjGkEJDm-17" vertex="1">
          <mxGeometry x="470" y="50" width="105" height="100" as="geometry" />
        </mxCell>
        <mxCell id="SL9IZBJ_y124oKuT5V4R-43" style="edgeStyle=orthogonalEdgeStyle;rounded=0;orthogonalLoop=1;jettySize=auto;html=1;exitX=1;exitY=0.5;exitDx=0;exitDy=0;" parent="LoFIVnIxgqHAPjGkEJDm-17" source="SL9IZBJ_y124oKuT5V4R-41" target="OHhqIteTEnRP82Deqhdj-1" edge="1">
          <mxGeometry relative="1" as="geometry" />
        </mxCell>
        <mxCell id="SL9IZBJ_y124oKuT5V4R-41" value="" style="ellipse;whiteSpace=wrap;html=1;aspect=fixed;" parent="LoFIVnIxgqHAPjGkEJDm-17" vertex="1">
          <mxGeometry x="40" y="80" width="40" height="40" as="geometry" />
        </mxCell>
        <mxCell id="SL9IZBJ_y124oKuT5V4R-42" value="Start" style="text;html=1;align=center;verticalAlign=middle;resizable=0;points=[];autosize=1;strokeColor=none;fillColor=none;" parent="LoFIVnIxgqHAPjGkEJDm-17" vertex="1">
          <mxGeometry x="35" y="130" width="50" height="30" as="geometry" />
        </mxCell>
        <mxCell id="rFtyr8tTAtumKJGWqgVe-1" value="Pharmacy" style="swimlane;html=1;childLayout=stackLayout;resizeParent=1;resizeParentMax=0;horizontal=0;startSize=20;horizontalStack=0;whiteSpace=wrap;" parent="1" vertex="1">
          <mxGeometry x="130" y="931" width="1460" height="120" as="geometry" />
        </mxCell>
        <mxCell id="rFtyr8tTAtumKJGWqgVe-2" value="IT Support Staff" style="swimlane;html=1;startSize=20;horizontal=0;" parent="rFtyr8tTAtumKJGWqgVe-1" vertex="1">
          <mxGeometry x="20" width="1440" height="120" as="geometry" />
        </mxCell>
        <mxCell id="rFtyr8tTAtumKJGWqgVe-5" value="&lt;br&gt;&lt;span style=&quot;color: rgb(0, 0, 0); font-family: Calibri, sans-serif; font-size: 16px; font-style: normal; font-variant-ligatures: normal; font-variant-caps: normal; font-weight: 700; letter-spacing: normal; orphans: 2; text-align: center; text-indent: 0px; text-transform: none; widows: 2; word-spacing: 0px; -webkit-text-stroke-width: 0px; white-space: pre-wrap; background-color: rgb(236, 236, 236); text-decoration-thickness: initial; text-decoration-style: initial; text-decoration-color: initial; float: none; display: inline !important;&quot;&gt;J. Record Keeping and Compliance&lt;/span&gt;&lt;div&gt;&lt;br/&gt;&lt;/div&gt;" style="rounded=1;whiteSpace=wrap;html=1;" parent="rFtyr8tTAtumKJGWqgVe-2" vertex="1">
          <mxGeometry x="50" y="30" width="120" height="60" as="geometry" />
        </mxCell>
        <mxCell id="oM6bQlTkFFDLwcXqN5zV-2" value="&lt;font face=&quot;Calibri, sans-serif&quot;&gt;&lt;span style=&quot;font-size: 16px; white-space-collapse: preserve;&quot;&gt;&lt;b&gt;K. Drug. Catalogue&lt;/b&gt;&lt;/span&gt;&lt;/font&gt;" style="rounded=1;whiteSpace=wrap;html=1;" vertex="1" parent="rFtyr8tTAtumKJGWqgVe-2">
          <mxGeometry x="200" y="30" width="120" height="60" as="geometry" />
        </mxCell>
        <mxCell id="SL9IZBJ_y124oKuT5V4R-19" style="edgeStyle=orthogonalEdgeStyle;rounded=0;orthogonalLoop=1;jettySize=auto;html=1;exitX=0.5;exitY=1;exitDx=0;exitDy=0;entryX=0.65;entryY=-0.017;entryDx=0;entryDy=0;entryPerimeter=0;dashed=1;" parent="1" source="k42c4vTE9eBuGUdbC--N-1" target="uOPXvyU8QvOe7ulKXDUi-3" edge="1">
          <mxGeometry relative="1" as="geometry" />
        </mxCell>
        <mxCell id="SL9IZBJ_y124oKuT5V4R-20" value="Yes" style="edgeLabel;html=1;align=center;verticalAlign=middle;resizable=0;points=[];" parent="SL9IZBJ_y124oKuT5V4R-19" vertex="1" connectable="0">
          <mxGeometry x="0.0328" y="2" relative="1" as="geometry">
            <mxPoint x="1" as="offset" />
          </mxGeometry>
        </mxCell>
        <mxCell id="SL9IZBJ_y124oKuT5V4R-36" style="edgeStyle=orthogonalEdgeStyle;rounded=0;orthogonalLoop=1;jettySize=auto;html=1;exitX=1;exitY=0.5;exitDx=0;exitDy=0;entryX=0.544;entryY=1.057;entryDx=0;entryDy=0;entryPerimeter=0;dashed=1;" parent="1" source="6_r8tmlfpXvBIYUj3VaT-1" target="ebsa3QstTuPWrp_IX795-2" edge="1">
          <mxGeometry relative="1" as="geometry" />
        </mxCell>
        <mxCell id="LoFIVnIxgqHAPjGkEJDm-13" value="Dispatch officer" style="swimlane;html=1;startSize=20;horizontal=0;" parent="1" vertex="1">
          <mxGeometry x="130" y="810" width="1460" height="120" as="geometry" />
        </mxCell>
        <mxCell id="6_r8tmlfpXvBIYUj3VaT-1" value="&lt;span style=&quot;font-family: Calibri, sans-serif; font-size: 16px; font-weight: 700; white-space-collapse: preserve;&quot;&gt;F: Medication Delivery&lt;/span&gt;" style="whiteSpace=wrap;html=1;rounded=1;" parent="LoFIVnIxgqHAPjGkEJDm-13" vertex="1">
          <mxGeometry x="57.5" y="60" width="120" height="60" as="geometry" />
        </mxCell>
      </root>
    </mxGraphModel>
  </diagram>
  <diagram name="Patient Registration and Data Collection" id="IQBv178opMSk4eNjKWvH">
    <mxGraphModel dx="891" dy="548" grid="1" gridSize="10" guides="1" tooltips="1" connect="1" arrows="1" fold="1" page="1" pageScale="1" pageWidth="827" pageHeight="1169" math="0" shadow="0">
      <root>
        <mxCell id="0" />
        <mxCell id="1" parent="0" />
        <mxCell id="f09ycsGXhL4b5DDycxK3-3" value="&lt;span id=&quot;docs-internal-guid-90e6494d-7fff-451f-3478-2fb641c76356&quot; style=&quot;font-weight:normal;&quot;&gt;&lt;p style=&quot;line-height:1.2;margin-top:0pt;margin-bottom:0pt;&quot; dir=&quot;ltr&quot;&gt;&lt;span style=&quot;font-size: 12pt; font-family: Calibri, sans-serif; background-color: transparent; font-weight: 700; font-variant-numeric: normal; font-variant-east-asian: normal; font-variant-alternates: normal; font-variant-position: normal; font-variant-emoji: normal; vertical-align: baseline; white-space-collapse: preserve;&quot;&gt;&lt;br&gt;&lt;/span&gt;&lt;/p&gt;&lt;p style=&quot;line-height:1.2;margin-top:0pt;margin-bottom:0pt;&quot; dir=&quot;ltr&quot;&gt;&lt;span style=&quot;font-size: 12pt; font-family: Calibri, sans-serif; background-color: transparent; font-weight: 700; font-variant-numeric: normal; font-variant-east-asian: normal; font-variant-alternates: normal; font-variant-position: normal; font-variant-emoji: normal; vertical-align: baseline; white-space-collapse: preserve;&quot;&gt;A: Patient Registration and Data Collection&lt;/span&gt;&lt;/p&gt;&lt;div&gt;&lt;span style=&quot;font-size: 12pt; font-family: Calibri, sans-serif; background-color: transparent; font-weight: 700; font-variant-numeric: normal; font-variant-east-asian: normal; font-variant-alternates: normal; font-variant-position: normal; font-variant-emoji: normal; vertical-align: baseline; white-space-collapse: preserve;&quot;&gt;&lt;br&gt;&lt;/span&gt;&lt;/div&gt;&lt;/span&gt;" style="swimlane;html=1;childLayout=stackLayout;resizeParent=1;resizeParentMax=0;horizontal=1;startSize=40;horizontalStack=0;whiteSpace=wrap;" parent="1" vertex="1">
          <mxGeometry x="130" y="60" width="1750" height="430" as="geometry">
            <mxRectangle x="200" y="120" width="300" height="70" as="alternateBounds" />
          </mxGeometry>
        </mxCell>
        <mxCell id="f09ycsGXhL4b5DDycxK3-4" value="Health Facility/Home" style="swimlane;html=1;startSize=20;horizontal=0;" parent="f09ycsGXhL4b5DDycxK3-3" vertex="1">
          <mxGeometry y="40" width="1750" height="390" as="geometry" />
        </mxCell>
        <mxCell id="XMIR0kl2lQpItgrvHLfo-43" value="" style="edgeStyle=none;curved=1;rounded=0;orthogonalLoop=1;jettySize=auto;html=1;fontSize=12;startSize=8;endSize=8;" edge="1" parent="f09ycsGXhL4b5DDycxK3-4" source="f09ycsGXhL4b5DDycxK3-9" target="XMIR0kl2lQpItgrvHLfo-42">
          <mxGeometry relative="1" as="geometry" />
        </mxCell>
        <mxCell id="f09ycsGXhL4b5DDycxK3-9" value="" style="ellipse;whiteSpace=wrap;html=1;aspect=fixed;" parent="f09ycsGXhL4b5DDycxK3-4" vertex="1">
          <mxGeometry x="40" y="62" width="40" height="40" as="geometry" />
        </mxCell>
        <mxCell id="f09ycsGXhL4b5DDycxK3-14" value="" style="edgeStyle=orthogonalEdgeStyle;rounded=0;orthogonalLoop=1;jettySize=auto;html=1;" parent="f09ycsGXhL4b5DDycxK3-4" target="f09ycsGXhL4b5DDycxK3-13" edge="1">
          <mxGeometry relative="1" as="geometry">
            <mxPoint x="1260" y="70" as="sourcePoint" />
          </mxGeometry>
        </mxCell>
        <mxCell id="f09ycsGXhL4b5DDycxK3-11" value="&lt;span id=&quot;docs-internal-guid-c965c15d-7fff-02ff-38ee-e83769f90e56&quot;&gt;&lt;span style=&quot;font-size: 12pt; font-family: Calibri, sans-serif; background-color: transparent; font-variant-numeric: normal; font-variant-east-asian: normal; font-variant-alternates: normal; font-variant-position: normal; font-variant-emoji: normal; vertical-align: baseline; white-space-collapse: preserve;&quot;&gt;&amp;nbsp;Verify insurance details.&lt;/span&gt;&lt;/span&gt;" style="points=[[0.25,0,0],[0.5,0,0],[0.75,0,0],[1,0.25,0],[1,0.5,0],[1,0.75,0],[0.75,1,0],[0.5,1,0],[0.25,1,0],[0,0.75,0],[0,0.5,0],[0,0.25,0]];shape=mxgraph.bpmn.task2;whiteSpace=wrap;rectStyle=rounded;size=10;html=1;container=1;expand=0;collapsible=0;taskMarker=abstract;" parent="f09ycsGXhL4b5DDycxK3-4" vertex="1">
          <mxGeometry x="1150" y="35" width="120" height="80" as="geometry" />
        </mxCell>
        <mxCell id="f09ycsGXhL4b5DDycxK3-13" value="&lt;span id=&quot;docs-internal-guid-c2e35e0a-7fff-4c2f-d769-fb44d6611233&quot;&gt;&lt;span style=&quot;font-size: 12pt; font-family: Calibri, sans-serif; background-color: transparent; font-variant-numeric: normal; font-variant-east-asian: normal; font-variant-alternates: normal; font-variant-position: normal; font-variant-emoji: normal; vertical-align: baseline; white-space-collapse: preserve;&quot;&gt;&lt;font style=&quot;color: light-dark(rgb(244, 52, 52), rgb(237, 237, 237));&quot;&gt;Obtain consent forms.&lt;/font&gt;&lt;/span&gt;&lt;/span&gt;" style="points=[[0.25,0,0],[0.5,0,0],[0.75,0,0],[1,0.25,0],[1,0.5,0],[1,0.75,0],[0.75,1,0],[0.5,1,0],[0.25,1,0],[0,0.75,0],[0,0.5,0],[0,0.25,0]];shape=mxgraph.bpmn.task2;whiteSpace=wrap;rectStyle=rounded;size=10;html=1;container=1;expand=0;collapsible=0;taskMarker=abstract;" parent="f09ycsGXhL4b5DDycxK3-4" vertex="1">
          <mxGeometry x="1300" y="35" width="130" height="70" as="geometry" />
        </mxCell>
        <mxCell id="XMIR0kl2lQpItgrvHLfo-82" style="edgeStyle=none;curved=1;rounded=0;orthogonalLoop=1;jettySize=auto;html=1;exitX=1;exitY=0.5;exitDx=0;exitDy=0;fontSize=12;startSize=8;endSize=8;" edge="1" parent="f09ycsGXhL4b5DDycxK3-4" source="f09ycsGXhL4b5DDycxK3-19" target="cRBeuvLZCBL2K7MJUadq-1">
          <mxGeometry relative="1" as="geometry" />
        </mxCell>
        <mxCell id="f09ycsGXhL4b5DDycxK3-19" value="Is the&lt;div&gt;&amp;nbsp;registration form complete?&lt;/div&gt;" style="rhombus;whiteSpace=wrap;html=1;" parent="f09ycsGXhL4b5DDycxK3-4" vertex="1">
          <mxGeometry x="1480" y="12" width="110" height="110" as="geometry" />
        </mxCell>
        <mxCell id="f09ycsGXhL4b5DDycxK3-28" value="Start" style="text;html=1;align=center;verticalAlign=middle;whiteSpace=wrap;rounded=0;" parent="f09ycsGXhL4b5DDycxK3-4" vertex="1">
          <mxGeometry x="30" y="115" width="60" height="30" as="geometry" />
        </mxCell>
        <mxCell id="f09ycsGXhL4b5DDycxK3-31" value="&lt;p style=&quot;line-height: 1.38; margin-top: 0pt; margin-bottom: 0pt;&quot; dir=&quot;ltr&quot;&gt;&lt;span style=&quot;font-size: 12pt; font-family: Calibri, sans-serif; background-color: transparent; font-variant-numeric: normal; font-variant-east-asian: normal; font-variant-alternates: normal; font-variant-position: normal; font-variant-emoji: normal; vertical-align: baseline; white-space-collapse: preserve;&quot;&gt;B. Proceed to Prescription Generation.&lt;/span&gt;&lt;/p&gt;&lt;div&gt;&lt;span style=&quot;font-size: 12pt; font-family: Calibri, sans-serif; background-color: transparent; font-variant-numeric: normal; font-variant-east-asian: normal; font-variant-alternates: normal; font-variant-position: normal; font-variant-emoji: normal; vertical-align: baseline; white-space-collapse: preserve;&quot;&gt;&lt;br&gt;&lt;/span&gt;&lt;/div&gt;" style="text;html=1;align=center;verticalAlign=middle;whiteSpace=wrap;rounded=0;" parent="f09ycsGXhL4b5DDycxK3-4" vertex="1">
          <mxGeometry x="1620" y="112" width="100" height="100" as="geometry" />
        </mxCell>
        <mxCell id="cRBeuvLZCBL2K7MJUadq-1" value="" style="points=[[0.145,0.145,0],[0.5,0,0],[0.855,0.145,0],[1,0.5,0],[0.855,0.855,0],[0.5,1,0],[0.145,0.855,0],[0,0.5,0]];shape=mxgraph.bpmn.event;html=1;verticalLabelPosition=bottom;labelBackgroundColor=#ffffff;verticalAlign=top;align=center;perimeter=ellipsePerimeter;outlineConnect=0;aspect=fixed;outline=throwing;symbol=link;" parent="f09ycsGXhL4b5DDycxK3-4" vertex="1">
          <mxGeometry x="1660" y="40" width="50" height="50" as="geometry" />
        </mxCell>
        <mxCell id="XMIR0kl2lQpItgrvHLfo-46" value="" style="edgeStyle=none;curved=1;rounded=0;orthogonalLoop=1;jettySize=auto;html=1;fontSize=12;startSize=8;endSize=8;" edge="1" parent="f09ycsGXhL4b5DDycxK3-4" source="XMIR0kl2lQpItgrvHLfo-42" target="XMIR0kl2lQpItgrvHLfo-45">
          <mxGeometry relative="1" as="geometry" />
        </mxCell>
        <mxCell id="XMIR0kl2lQpItgrvHLfo-42" value="Gather client details&amp;nbsp;" style="whiteSpace=wrap;html=1;rounded=1;" vertex="1" parent="f09ycsGXhL4b5DDycxK3-4">
          <mxGeometry x="160" y="52" width="120" height="60" as="geometry" />
        </mxCell>
        <mxCell id="XMIR0kl2lQpItgrvHLfo-50" value="" style="edgeStyle=none;curved=1;rounded=0;orthogonalLoop=1;jettySize=auto;html=1;fontSize=12;startSize=8;endSize=8;" edge="1" parent="f09ycsGXhL4b5DDycxK3-4" source="XMIR0kl2lQpItgrvHLfo-45" target="XMIR0kl2lQpItgrvHLfo-49">
          <mxGeometry relative="1" as="geometry" />
        </mxCell>
        <mxCell id="XMIR0kl2lQpItgrvHLfo-45" value="Search for client" style="whiteSpace=wrap;html=1;rounded=1;" vertex="1" parent="f09ycsGXhL4b5DDycxK3-4">
          <mxGeometry x="320" y="50" width="120" height="60" as="geometry" />
        </mxCell>
        <mxCell id="XMIR0kl2lQpItgrvHLfo-53" value="" style="edgeStyle=none;curved=1;rounded=0;orthogonalLoop=1;jettySize=auto;html=1;fontSize=12;startSize=8;endSize=8;" edge="1" parent="f09ycsGXhL4b5DDycxK3-4" source="XMIR0kl2lQpItgrvHLfo-49" target="XMIR0kl2lQpItgrvHLfo-52">
          <mxGeometry relative="1" as="geometry" />
        </mxCell>
        <mxCell id="XMIR0kl2lQpItgrvHLfo-54" value="No" style="edgeLabel;html=1;align=center;verticalAlign=middle;resizable=0;points=[];fontSize=12;" vertex="1" connectable="0" parent="XMIR0kl2lQpItgrvHLfo-53">
          <mxGeometry x="-0.0787" y="-1" relative="1" as="geometry">
            <mxPoint as="offset" />
          </mxGeometry>
        </mxCell>
        <mxCell id="XMIR0kl2lQpItgrvHLfo-76" style="edgeStyle=none;curved=1;rounded=0;orthogonalLoop=1;jettySize=auto;html=1;exitX=1;exitY=0.5;exitDx=0;exitDy=0;entryX=0;entryY=0.5;entryDx=0;entryDy=0;fontSize=12;startSize=8;endSize=8;" edge="1" parent="f09ycsGXhL4b5DDycxK3-4" source="XMIR0kl2lQpItgrvHLfo-49" target="XMIR0kl2lQpItgrvHLfo-56">
          <mxGeometry relative="1" as="geometry" />
        </mxCell>
        <mxCell id="XMIR0kl2lQpItgrvHLfo-77" value="Yes" style="edgeLabel;html=1;align=center;verticalAlign=middle;resizable=0;points=[];fontSize=12;" vertex="1" connectable="0" parent="XMIR0kl2lQpItgrvHLfo-76">
          <mxGeometry x="-0.0943" y="-5" relative="1" as="geometry">
            <mxPoint as="offset" />
          </mxGeometry>
        </mxCell>
        <mxCell id="XMIR0kl2lQpItgrvHLfo-49" value="Match&amp;nbsp;&lt;div&gt;found?&lt;/div&gt;" style="rhombus;whiteSpace=wrap;html=1;rounded=1;" vertex="1" parent="f09ycsGXhL4b5DDycxK3-4">
          <mxGeometry x="490" y="42" width="80" height="80" as="geometry" />
        </mxCell>
        <mxCell id="XMIR0kl2lQpItgrvHLfo-52" value="Create Client Record" style="whiteSpace=wrap;html=1;rounded=1;" vertex="1" parent="f09ycsGXhL4b5DDycxK3-4">
          <mxGeometry x="470" y="300" width="120" height="60" as="geometry" />
        </mxCell>
        <mxCell id="XMIR0kl2lQpItgrvHLfo-55" style="edgeStyle=orthogonalEdgeStyle;rounded=0;orthogonalLoop=1;jettySize=auto;html=1;exitX=1;exitY=0.5;exitDx=0;exitDy=0;entryX=0.5;entryY=1;entryDx=0;entryDy=0;entryPerimeter=0;fontSize=12;startSize=8;endSize=8;" edge="1" parent="f09ycsGXhL4b5DDycxK3-4" source="XMIR0kl2lQpItgrvHLfo-52" target="f09ycsGXhL4b5DDycxK3-11">
          <mxGeometry relative="1" as="geometry" />
        </mxCell>
        <mxCell id="XMIR0kl2lQpItgrvHLfo-56" value="" style="rounded=1;whiteSpace=wrap;html=1;arcSize=5;movable=1;resizable=1;rotatable=1;deletable=1;editable=1;locked=0;connectable=1;fillColor=#f9f7ed;strokeColor=#36393d;" vertex="1" parent="f09ycsGXhL4b5DDycxK3-4">
          <mxGeometry x="630" y="14" width="480" height="140" as="geometry" />
        </mxCell>
        <mxCell id="XMIR0kl2lQpItgrvHLfo-61" value="" style="edgeStyle=none;curved=1;rounded=0;orthogonalLoop=1;jettySize=auto;html=1;fontSize=12;startSize=8;endSize=8;" edge="1" parent="f09ycsGXhL4b5DDycxK3-4" source="XMIR0kl2lQpItgrvHLfo-58" target="XMIR0kl2lQpItgrvHLfo-60">
          <mxGeometry relative="1" as="geometry" />
        </mxCell>
        <mxCell id="XMIR0kl2lQpItgrvHLfo-58" value="" style="ellipse;whiteSpace=wrap;html=1;aspect=fixed;" vertex="1" parent="f09ycsGXhL4b5DDycxK3-4">
          <mxGeometry x="640" y="62" width="40" height="40" as="geometry" />
        </mxCell>
        <mxCell id="XMIR0kl2lQpItgrvHLfo-59" value="Start" style="text;html=1;align=center;verticalAlign=middle;whiteSpace=wrap;rounded=0;" vertex="1" parent="f09ycsGXhL4b5DDycxK3-4">
          <mxGeometry x="630" y="110" width="60" height="30" as="geometry" />
        </mxCell>
        <mxCell id="XMIR0kl2lQpItgrvHLfo-65" value="" style="edgeStyle=none;curved=1;rounded=0;orthogonalLoop=1;jettySize=auto;html=1;fontSize=12;startSize=8;endSize=8;" edge="1" parent="f09ycsGXhL4b5DDycxK3-4" source="XMIR0kl2lQpItgrvHLfo-60" target="XMIR0kl2lQpItgrvHLfo-64">
          <mxGeometry relative="1" as="geometry" />
        </mxCell>
        <mxCell id="XMIR0kl2lQpItgrvHLfo-60" value="Review client record" style="whiteSpace=wrap;html=1;rounded=1;" vertex="1" parent="f09ycsGXhL4b5DDycxK3-4">
          <mxGeometry x="697" y="55" width="93" height="55" as="geometry" />
        </mxCell>
        <mxCell id="XMIR0kl2lQpItgrvHLfo-67" value="" style="edgeStyle=none;curved=1;rounded=0;orthogonalLoop=1;jettySize=auto;html=1;fontSize=12;startSize=8;endSize=8;" edge="1" parent="f09ycsGXhL4b5DDycxK3-4" source="XMIR0kl2lQpItgrvHLfo-64" target="XMIR0kl2lQpItgrvHLfo-66">
          <mxGeometry relative="1" as="geometry" />
        </mxCell>
        <mxCell id="XMIR0kl2lQpItgrvHLfo-69" value="Yes" style="edgeLabel;html=1;align=center;verticalAlign=middle;resizable=0;points=[];fontSize=12;" vertex="1" connectable="0" parent="XMIR0kl2lQpItgrvHLfo-67">
          <mxGeometry x="-0.1522" y="-1" relative="1" as="geometry">
            <mxPoint as="offset" />
          </mxGeometry>
        </mxCell>
        <mxCell id="XMIR0kl2lQpItgrvHLfo-78" style="edgeStyle=orthogonalEdgeStyle;rounded=0;orthogonalLoop=1;jettySize=auto;html=1;exitX=0.5;exitY=1;exitDx=0;exitDy=0;entryX=0.5;entryY=1;entryDx=0;entryDy=0;fontSize=12;startSize=8;endSize=8;" edge="1" parent="f09ycsGXhL4b5DDycxK3-4" source="XMIR0kl2lQpItgrvHLfo-64" target="XMIR0kl2lQpItgrvHLfo-70">
          <mxGeometry relative="1" as="geometry" />
        </mxCell>
        <mxCell id="XMIR0kl2lQpItgrvHLfo-79" value="No" style="edgeLabel;html=1;align=center;verticalAlign=middle;resizable=0;points=[];fontSize=12;" vertex="1" connectable="0" parent="XMIR0kl2lQpItgrvHLfo-78">
          <mxGeometry x="-0.1495" relative="1" as="geometry">
            <mxPoint as="offset" />
          </mxGeometry>
        </mxCell>
        <mxCell id="XMIR0kl2lQpItgrvHLfo-64" value="Update needed?" style="rhombus;whiteSpace=wrap;html=1;rounded=1;" vertex="1" parent="f09ycsGXhL4b5DDycxK3-4">
          <mxGeometry x="830" y="40" width="80" height="80" as="geometry" />
        </mxCell>
        <mxCell id="XMIR0kl2lQpItgrvHLfo-71" value="" style="edgeStyle=none;curved=1;rounded=0;orthogonalLoop=1;jettySize=auto;html=1;fontSize=12;startSize=8;endSize=8;" edge="1" parent="f09ycsGXhL4b5DDycxK3-4" source="XMIR0kl2lQpItgrvHLfo-66" target="XMIR0kl2lQpItgrvHLfo-70">
          <mxGeometry relative="1" as="geometry" />
        </mxCell>
        <mxCell id="XMIR0kl2lQpItgrvHLfo-66" value="Update Client Record" style="whiteSpace=wrap;html=1;rounded=1;" vertex="1" parent="f09ycsGXhL4b5DDycxK3-4">
          <mxGeometry x="970" y="55" width="80" height="55" as="geometry" />
        </mxCell>
        <mxCell id="XMIR0kl2lQpItgrvHLfo-70" value="" style="ellipse;whiteSpace=wrap;html=1;rounded=1;strokeWidth=5;" vertex="1" parent="f09ycsGXhL4b5DDycxK3-4">
          <mxGeometry x="1070" y="70" width="25" height="25" as="geometry" />
        </mxCell>
        <mxCell id="XMIR0kl2lQpItgrvHLfo-72" value="End" style="text;html=1;align=center;verticalAlign=middle;whiteSpace=wrap;rounded=0;" vertex="1" parent="f09ycsGXhL4b5DDycxK3-4">
          <mxGeometry x="1050" y="32" width="60" height="30" as="geometry" />
        </mxCell>
        <mxCell id="XMIR0kl2lQpItgrvHLfo-75" value="Validate Client Details" style="text;html=1;align=center;verticalAlign=middle;whiteSpace=wrap;rounded=0;fontStyle=1" vertex="1" parent="f09ycsGXhL4b5DDycxK3-4">
          <mxGeometry x="790" y="10" width="170" height="30" as="geometry" />
        </mxCell>
        <mxCell id="XMIR0kl2lQpItgrvHLfo-80" style="edgeStyle=none;curved=1;rounded=0;orthogonalLoop=1;jettySize=auto;html=1;exitX=1;exitY=0.5;exitDx=0;exitDy=0;entryX=-0.017;entryY=0.6;entryDx=0;entryDy=0;entryPerimeter=0;fontSize=12;startSize=8;endSize=8;" edge="1" parent="f09ycsGXhL4b5DDycxK3-4" source="XMIR0kl2lQpItgrvHLfo-56" target="f09ycsGXhL4b5DDycxK3-11">
          <mxGeometry relative="1" as="geometry" />
        </mxCell>
        <mxCell id="XMIR0kl2lQpItgrvHLfo-81" style="edgeStyle=none;curved=1;rounded=0;orthogonalLoop=1;jettySize=auto;html=1;exitX=1;exitY=0.5;exitDx=0;exitDy=0;exitPerimeter=0;entryX=0.064;entryY=0.527;entryDx=0;entryDy=0;entryPerimeter=0;fontSize=12;startSize=8;endSize=8;" edge="1" parent="f09ycsGXhL4b5DDycxK3-4" source="f09ycsGXhL4b5DDycxK3-13" target="f09ycsGXhL4b5DDycxK3-19">
          <mxGeometry relative="1" as="geometry" />
        </mxCell>
      </root>
    </mxGraphModel>
  </diagram>
  <diagram id="u1sSwh6OzwDZ00NFMCQm" name="Prescription Generation">
    <mxGraphModel dx="1666" dy="515" grid="1" gridSize="10" guides="1" tooltips="1" connect="1" arrows="1" fold="1" page="1" pageScale="1" pageWidth="827" pageHeight="1169" math="0" shadow="0">
      <root>
        <mxCell id="0" />
        <mxCell id="1" parent="0" />
        <mxCell id="p_97QW8hRnv9CUj4u_Fj-1" value="&lt;span id=&quot;docs-internal-guid-48afc30a-7fff-322c-68e1-61823d811bb7&quot; style=&quot;font-weight:normal;&quot;&gt;&lt;span style=&quot;font-size: 12pt; font-family: Calibri, sans-serif; background-color: transparent; font-weight: 700; font-variant-numeric: normal; font-variant-east-asian: normal; font-variant-alternates: normal; font-variant-position: normal; font-variant-emoji: normal; vertical-align: baseline; white-space-collapse: preserve;&quot;&gt;B. Prescription Generation&lt;/span&gt;&lt;/span&gt;" style="swimlane;html=1;childLayout=stackLayout;resizeParent=1;resizeParentMax=0;horizontal=1;startSize=20;horizontalStack=0;whiteSpace=wrap;" parent="1" vertex="1">
          <mxGeometry x="-70" y="30" width="1720" height="470" as="geometry" />
        </mxCell>
        <mxCell id="p_97QW8hRnv9CUj4u_Fj-2" value="Prescriber" style="swimlane;html=1;startSize=20;horizontal=0;" parent="p_97QW8hRnv9CUj4u_Fj-1" vertex="1">
          <mxGeometry y="20" width="1720" height="450" as="geometry" />
        </mxCell>
        <mxCell id="DTX5b2P86f72rMg25cCh-3" value="" style="edgeStyle=none;curved=1;rounded=0;orthogonalLoop=1;jettySize=auto;html=1;fontSize=12;startSize=8;endSize=8;" edge="1" parent="p_97QW8hRnv9CUj4u_Fj-2" source="p_97QW8hRnv9CUj4u_Fj-10" target="DTX5b2P86f72rMg25cCh-2">
          <mxGeometry relative="1" as="geometry" />
        </mxCell>
        <mxCell id="p_97QW8hRnv9CUj4u_Fj-10" value="&lt;font face=&quot;Calibri, sans-serif&quot;&gt;&lt;span style=&quot;font-size: 16px; white-space-collapse: preserve;&quot;&gt;Enter diagnosis&lt;/span&gt;&lt;/font&gt;" style="rounded=1;whiteSpace=wrap;html=1;" parent="p_97QW8hRnv9CUj4u_Fj-2" vertex="1">
          <mxGeometry x="109" y="70" width="120" height="60" as="geometry" />
        </mxCell>
        <mxCell id="DTX5b2P86f72rMg25cCh-70" style="edgeStyle=none;curved=1;rounded=0;orthogonalLoop=1;jettySize=auto;html=1;exitX=1;exitY=0.5;exitDx=0;exitDy=0;entryX=0;entryY=0.5;entryDx=0;entryDy=0;fontSize=12;startSize=8;endSize=8;" edge="1" parent="p_97QW8hRnv9CUj4u_Fj-2" source="p_97QW8hRnv9CUj4u_Fj-12" target="p_97QW8hRnv9CUj4u_Fj-16">
          <mxGeometry relative="1" as="geometry" />
        </mxCell>
        <mxCell id="p_97QW8hRnv9CUj4u_Fj-12" value="&lt;br&gt;&lt;div&gt;&lt;b style=&quot;font-weight:normal;&quot;&gt;&lt;span style=&quot;font-size: 12pt; font-family: Calibri, sans-serif; color: rgb(0, 0, 0); background-color: transparent; font-weight: 400; font-style: normal; font-variant: normal; text-decoration: none; vertical-align: baseline; white-space: pre-wrap;&quot;&gt;Document prescriber information.&lt;/span&gt;&lt;/b&gt;&lt;br&gt;&lt;br&gt;&lt;/div&gt;" style="whiteSpace=wrap;html=1;rounded=1;" parent="p_97QW8hRnv9CUj4u_Fj-2" vertex="1">
          <mxGeometry x="1231" y="92" width="160" height="70" as="geometry" />
        </mxCell>
        <mxCell id="DTX5b2P86f72rMg25cCh-53" style="edgeStyle=none;curved=1;rounded=0;orthogonalLoop=1;jettySize=auto;html=1;exitX=0.5;exitY=1;exitDx=0;exitDy=0;fontSize=12;startSize=8;endSize=8;" edge="1" parent="p_97QW8hRnv9CUj4u_Fj-2" source="p_97QW8hRnv9CUj4u_Fj-14" target="DTX5b2P86f72rMg25cCh-52">
          <mxGeometry relative="1" as="geometry" />
        </mxCell>
        <mxCell id="DTX5b2P86f72rMg25cCh-67" value="No" style="edgeLabel;html=1;align=center;verticalAlign=middle;resizable=0;points=[];fontSize=12;" vertex="1" connectable="0" parent="DTX5b2P86f72rMg25cCh-53">
          <mxGeometry x="-0.3218" y="-2" relative="1" as="geometry">
            <mxPoint as="offset" />
          </mxGeometry>
        </mxCell>
        <mxCell id="DTX5b2P86f72rMg25cCh-68" style="edgeStyle=none;curved=1;rounded=0;orthogonalLoop=1;jettySize=auto;html=1;exitX=1;exitY=0.5;exitDx=0;exitDy=0;fontSize=12;startSize=8;endSize=8;" edge="1" parent="p_97QW8hRnv9CUj4u_Fj-2" source="p_97QW8hRnv9CUj4u_Fj-14" target="p_97QW8hRnv9CUj4u_Fj-12">
          <mxGeometry relative="1" as="geometry" />
        </mxCell>
        <mxCell id="DTX5b2P86f72rMg25cCh-72" value="Yes" style="edgeLabel;html=1;align=center;verticalAlign=middle;resizable=0;points=[];fontSize=12;" vertex="1" connectable="0" parent="DTX5b2P86f72rMg25cCh-68">
          <mxGeometry x="-0.295" y="3" relative="1" as="geometry">
            <mxPoint as="offset" />
          </mxGeometry>
        </mxCell>
        <mxCell id="p_97QW8hRnv9CUj4u_Fj-14" value="&#xa;&lt;b id=&quot;docs-internal-guid-80a414e3-7fff-8887-1734-a7b34acb1453&quot; style=&quot;font-weight:normal;&quot;&gt;&lt;span style=&quot;font-size:12pt;font-family:Calibri,sans-serif;color:#000000;background-color:transparent;font-weight:400;font-style:normal;font-variant:normal;text-decoration:none;vertical-align:baseline;white-space:pre;white-space:pre-wrap;&quot;&gt;Is the prescription accurate?&lt;/span&gt;&lt;/b&gt;&#xa;&#xa;" style="rhombus;whiteSpace=wrap;html=1;rounded=1;" parent="p_97QW8hRnv9CUj4u_Fj-2" vertex="1">
          <mxGeometry x="1040" y="76" width="100" height="102" as="geometry" />
        </mxCell>
        <mxCell id="DTX5b2P86f72rMg25cCh-71" style="edgeStyle=none;curved=1;rounded=0;orthogonalLoop=1;jettySize=auto;html=1;exitX=1;exitY=0.5;exitDx=0;exitDy=0;fontSize=12;startSize=8;endSize=8;" edge="1" parent="p_97QW8hRnv9CUj4u_Fj-2" source="p_97QW8hRnv9CUj4u_Fj-16" target="Era42OYD5ZkedGCXc855-7">
          <mxGeometry relative="1" as="geometry" />
        </mxCell>
        <mxCell id="p_97QW8hRnv9CUj4u_Fj-16" value="&lt;span id=&quot;docs-internal-guid-497fcfe2-7fff-ce20-5d94-0a3bc29e09fa&quot;&gt;&lt;span style=&quot;font-size: 12pt; font-family: Calibri, sans-serif; background-color: transparent; font-variant-numeric: normal; font-variant-east-asian: normal; font-variant-alternates: normal; font-variant-position: normal; font-variant-emoji: normal; vertical-align: baseline; white-space-collapse: preserve;&quot;&gt;Forward to Pharmacy Processing.&lt;/span&gt;&lt;/span&gt;" style="whiteSpace=wrap;html=1;rounded=1;" parent="p_97QW8hRnv9CUj4u_Fj-2" vertex="1">
          <mxGeometry x="1444" y="96" width="156" height="62" as="geometry" />
        </mxCell>
        <mxCell id="Era42OYD5ZkedGCXc855-4" style="edgeStyle=orthogonalEdgeStyle;rounded=0;orthogonalLoop=1;jettySize=auto;html=1;exitX=1;exitY=0.5;exitDx=0;exitDy=0;exitPerimeter=0;entryX=0;entryY=0.5;entryDx=0;entryDy=0;" parent="p_97QW8hRnv9CUj4u_Fj-2" source="Era42OYD5ZkedGCXc855-1" target="p_97QW8hRnv9CUj4u_Fj-10" edge="1">
          <mxGeometry relative="1" as="geometry" />
        </mxCell>
        <mxCell id="Era42OYD5ZkedGCXc855-1" value="" style="points=[[0.145,0.145,0],[0.5,0,0],[0.855,0.145,0],[1,0.5,0],[0.855,0.855,0],[0.5,1,0],[0.145,0.855,0],[0,0.5,0]];shape=mxgraph.bpmn.event;html=1;verticalLabelPosition=bottom;labelBackgroundColor=#ffffff;verticalAlign=top;align=center;perimeter=ellipsePerimeter;outlineConnect=0;aspect=fixed;outline=catching;symbol=link;" parent="p_97QW8hRnv9CUj4u_Fj-2" vertex="1">
          <mxGeometry x="24" y="75" width="50" height="50" as="geometry" />
        </mxCell>
        <mxCell id="qR8k6G08__zLhyO5gX4b-1" value="&lt;p style=&quot;line-height: 1.38; margin-top: 0pt; margin-bottom: 0pt;&quot; dir=&quot;ltr&quot;&gt;&lt;span style=&quot;font-size: 12pt; font-family: Calibri, sans-serif; background-color: transparent; font-variant-numeric: normal; font-variant-east-asian: normal; font-variant-alternates: normal; font-variant-position: normal; font-variant-emoji: normal; vertical-align: baseline; white-space-collapse: preserve;&quot;&gt;A. Patient Registration And Data Collection&lt;/span&gt;&lt;/p&gt;" style="text;html=1;align=center;verticalAlign=middle;whiteSpace=wrap;rounded=0;" parent="p_97QW8hRnv9CUj4u_Fj-2" vertex="1">
          <mxGeometry x="24" y="136" width="100" height="100" as="geometry" />
        </mxCell>
        <mxCell id="qR8k6G08__zLhyO5gX4b-44" value="&lt;p style=&quot;line-height: 1.38; margin-top: 0pt; margin-bottom: 0pt;&quot; dir=&quot;ltr&quot;&gt;&lt;font face=&quot;Calibri, sans-serif&quot;&gt;&lt;span style=&quot;font-size: 16px; white-space-collapse: preserve;&quot;&gt;C. Prescription Processing&lt;/span&gt;&lt;/font&gt;&lt;/p&gt;" style="text;html=1;align=center;verticalAlign=middle;whiteSpace=wrap;rounded=0;" parent="p_97QW8hRnv9CUj4u_Fj-2" vertex="1">
          <mxGeometry x="1615" y="141.5" width="100" height="100" as="geometry" />
        </mxCell>
        <mxCell id="DTX5b2P86f72rMg25cCh-2" value="&lt;span style=&quot;font-size: 15px;&quot;&gt;Select medication&lt;/span&gt;" style="whiteSpace=wrap;html=1;rounded=1;" vertex="1" parent="p_97QW8hRnv9CUj4u_Fj-2">
          <mxGeometry x="260" y="73" width="120" height="60" as="geometry" />
        </mxCell>
        <mxCell id="Era42OYD5ZkedGCXc855-7" value="" style="points=[[0.145,0.145,0],[0.5,0,0],[0.855,0.145,0],[1,0.5,0],[0.855,0.855,0],[0.5,1,0],[0.145,0.855,0],[0,0.5,0]];shape=mxgraph.bpmn.event;html=1;verticalLabelPosition=bottom;labelBackgroundColor=#ffffff;verticalAlign=top;align=center;perimeter=ellipsePerimeter;outlineConnect=0;aspect=fixed;outline=throwing;symbol=link;" parent="p_97QW8hRnv9CUj4u_Fj-2" vertex="1">
          <mxGeometry x="1640" y="102.25" width="50" height="50" as="geometry" />
        </mxCell>
        <mxCell id="DTX5b2P86f72rMg25cCh-66" style="edgeStyle=none;curved=1;rounded=0;orthogonalLoop=1;jettySize=auto;html=1;exitX=1;exitY=0.5;exitDx=0;exitDy=0;fontSize=12;startSize=8;endSize=8;" edge="1" parent="p_97QW8hRnv9CUj4u_Fj-2" source="DTX5b2P86f72rMg25cCh-5" target="p_97QW8hRnv9CUj4u_Fj-14">
          <mxGeometry relative="1" as="geometry" />
        </mxCell>
        <mxCell id="DTX5b2P86f72rMg25cCh-5" value="" style="whiteSpace=wrap;html=1;rounded=1;movable=1;resizable=1;rotatable=1;deletable=1;editable=1;locked=0;connectable=1;fillColor=#f9f7ed;strokeColor=#36393d;" vertex="1" parent="p_97QW8hRnv9CUj4u_Fj-2">
          <mxGeometry x="410" y="17" width="520" height="224.5" as="geometry" />
        </mxCell>
        <mxCell id="DTX5b2P86f72rMg25cCh-25" style="edgeStyle=none;curved=1;rounded=0;orthogonalLoop=1;jettySize=auto;html=1;exitX=1;exitY=0.5;exitDx=0;exitDy=0;fontSize=12;startSize=8;endSize=8;" edge="1" parent="p_97QW8hRnv9CUj4u_Fj-2" source="DTX5b2P86f72rMg25cCh-6" target="DTX5b2P86f72rMg25cCh-7">
          <mxGeometry relative="1" as="geometry" />
        </mxCell>
        <mxCell id="DTX5b2P86f72rMg25cCh-6" value="Review Drug Catalogue" style="rounded=1;whiteSpace=wrap;html=1;" vertex="1" parent="p_97QW8hRnv9CUj4u_Fj-2">
          <mxGeometry x="470" y="86.88" width="100" height="45.5" as="geometry" />
        </mxCell>
        <mxCell id="DTX5b2P86f72rMg25cCh-10" value="" style="edgeStyle=none;curved=1;rounded=0;orthogonalLoop=1;jettySize=auto;html=1;fontSize=12;startSize=8;endSize=8;" edge="1" parent="p_97QW8hRnv9CUj4u_Fj-2" source="DTX5b2P86f72rMg25cCh-7" target="DTX5b2P86f72rMg25cCh-9">
          <mxGeometry relative="1" as="geometry" />
        </mxCell>
        <mxCell id="DTX5b2P86f72rMg25cCh-11" value="Yes" style="edgeLabel;html=1;align=center;verticalAlign=middle;resizable=0;points=[];fontSize=12;" vertex="1" connectable="0" parent="DTX5b2P86f72rMg25cCh-10">
          <mxGeometry x="-0.3167" y="-2" relative="1" as="geometry">
            <mxPoint as="offset" />
          </mxGeometry>
        </mxCell>
        <mxCell id="DTX5b2P86f72rMg25cCh-14" value="" style="edgeStyle=none;curved=1;rounded=0;orthogonalLoop=1;jettySize=auto;html=1;fontSize=12;startSize=8;endSize=8;entryX=0.5;entryY=0;entryDx=0;entryDy=0;" edge="1" parent="p_97QW8hRnv9CUj4u_Fj-2" source="DTX5b2P86f72rMg25cCh-7" target="DTX5b2P86f72rMg25cCh-15">
          <mxGeometry relative="1" as="geometry">
            <mxPoint x="641" y="175.00499999999988" as="targetPoint" />
          </mxGeometry>
        </mxCell>
        <mxCell id="DTX5b2P86f72rMg25cCh-16" value="No" style="edgeLabel;html=1;align=center;verticalAlign=middle;resizable=0;points=[];fontSize=12;" vertex="1" connectable="0" parent="DTX5b2P86f72rMg25cCh-14">
          <mxGeometry x="-0.1532" relative="1" as="geometry">
            <mxPoint as="offset" />
          </mxGeometry>
        </mxCell>
        <mxCell id="DTX5b2P86f72rMg25cCh-7" value="Is the drug&lt;div&gt;available?&lt;/div&gt;" style="rhombus;whiteSpace=wrap;html=1;rounded=1;" vertex="1" parent="p_97QW8hRnv9CUj4u_Fj-2">
          <mxGeometry x="596" y="66" width="90" height="87.25" as="geometry" />
        </mxCell>
        <mxCell id="DTX5b2P86f72rMg25cCh-36" value="" style="edgeStyle=none;curved=1;rounded=0;orthogonalLoop=1;jettySize=auto;html=1;fontSize=12;startSize=8;endSize=8;" edge="1" parent="p_97QW8hRnv9CUj4u_Fj-2" source="DTX5b2P86f72rMg25cCh-9" target="DTX5b2P86f72rMg25cCh-35">
          <mxGeometry relative="1" as="geometry" />
        </mxCell>
        <mxCell id="DTX5b2P86f72rMg25cCh-9" value="Generate prescription" style="whiteSpace=wrap;html=1;rounded=1;" vertex="1" parent="p_97QW8hRnv9CUj4u_Fj-2">
          <mxGeometry x="726" y="79.625" width="120" height="60" as="geometry" />
        </mxCell>
        <mxCell id="DTX5b2P86f72rMg25cCh-18" value="" style="edgeStyle=orthogonalEdgeStyle;rounded=0;orthogonalLoop=1;jettySize=auto;html=1;fontSize=12;startSize=8;endSize=8;entryX=0.593;entryY=0.984;entryDx=0;entryDy=0;entryPerimeter=0;" edge="1" parent="p_97QW8hRnv9CUj4u_Fj-2" source="DTX5b2P86f72rMg25cCh-15" target="DTX5b2P86f72rMg25cCh-9">
          <mxGeometry relative="1" as="geometry">
            <mxPoint x="723" y="198.5" as="targetPoint" />
          </mxGeometry>
        </mxCell>
        <mxCell id="DTX5b2P86f72rMg25cCh-15" value="&lt;span id=&quot;docs-internal-guid-88da68d6-7fff-ee83-dbb2-e47a5dff945e&quot;&gt;&lt;span style=&quot;font-family: Calibri, sans-serif; background-color: transparent; font-variant-numeric: normal; font-variant-east-asian: normal; font-variant-alternates: normal; font-variant-position: normal; font-variant-emoji: normal; vertical-align: baseline; white-space-collapse: preserve;&quot;&gt;&lt;font style=&quot;font-size: 11px;&quot;&gt;Search External Pharmacy &lt;/font&gt;&lt;/span&gt;&lt;/span&gt;" style="rounded=1;whiteSpace=wrap;html=1;" vertex="1" parent="p_97QW8hRnv9CUj4u_Fj-2">
          <mxGeometry x="581" y="181" width="120" height="35" as="geometry" />
        </mxCell>
        <mxCell id="DTX5b2P86f72rMg25cCh-35" value="" style="ellipse;whiteSpace=wrap;html=1;rounded=1;strokeWidth=3;" vertex="1" parent="p_97QW8hRnv9CUj4u_Fj-2">
          <mxGeometry x="886" y="97.13" width="34" height="34.75" as="geometry" />
        </mxCell>
        <mxCell id="DTX5b2P86f72rMg25cCh-69" style="edgeStyle=orthogonalEdgeStyle;rounded=0;orthogonalLoop=1;jettySize=auto;html=1;exitX=1;exitY=0.5;exitDx=0;exitDy=0;fontSize=12;startSize=8;endSize=8;" edge="1" parent="p_97QW8hRnv9CUj4u_Fj-2" source="DTX5b2P86f72rMg25cCh-52" target="p_97QW8hRnv9CUj4u_Fj-12">
          <mxGeometry relative="1" as="geometry" />
        </mxCell>
        <mxCell id="DTX5b2P86f72rMg25cCh-52" value="&#xa;&lt;b id=&quot;docs-internal-guid-9aa08fdc-7fff-5824-a560-eb1b486a228e&quot; style=&quot;font-weight:normal;&quot;&gt;&lt;span style=&quot;font-size:12pt;font-family:Calibri,sans-serif;color:#000000;background-color:transparent;font-weight:400;font-style:normal;font-variant:normal;text-decoration:none;vertical-align:baseline;white-space:pre;white-space:pre-wrap;&quot;&gt;Review prescription for corrections.&lt;/span&gt;&lt;/b&gt;&#xa;&#xa;" style="whiteSpace=wrap;html=1;rounded=1;" vertex="1" parent="p_97QW8hRnv9CUj4u_Fj-2">
          <mxGeometry x="1030" y="265" width="120" height="70" as="geometry" />
        </mxCell>
        <mxCell id="DTX5b2P86f72rMg25cCh-55" value="Confirm Availability of Medication" style="text;html=1;align=center;verticalAlign=middle;whiteSpace=wrap;rounded=0;fontStyle=1;fontColor=light-dark(#ff0000, #ededed);" vertex="1" parent="p_97QW8hRnv9CUj4u_Fj-2">
          <mxGeometry x="581" y="26" width="210" height="30" as="geometry" />
        </mxCell>
        <mxCell id="DTX5b2P86f72rMg25cCh-59" style="edgeStyle=none;curved=1;rounded=0;orthogonalLoop=1;jettySize=auto;html=1;exitX=1;exitY=0.5;exitDx=0;exitDy=0;entryX=0;entryY=0.5;entryDx=0;entryDy=0;fontSize=12;startSize=8;endSize=8;" edge="1" parent="p_97QW8hRnv9CUj4u_Fj-2" source="DTX5b2P86f72rMg25cCh-58" target="DTX5b2P86f72rMg25cCh-6">
          <mxGeometry relative="1" as="geometry" />
        </mxCell>
        <mxCell id="DTX5b2P86f72rMg25cCh-58" value="" style="ellipse;whiteSpace=wrap;html=1;aspect=fixed;" vertex="1" parent="p_97QW8hRnv9CUj4u_Fj-2">
          <mxGeometry x="420" y="95" width="30" height="30" as="geometry" />
        </mxCell>
        <mxCell id="DTX5b2P86f72rMg25cCh-63" style="edgeStyle=none;curved=1;rounded=0;orthogonalLoop=1;jettySize=auto;html=1;exitX=1;exitY=0.5;exitDx=0;exitDy=0;entryX=-0.002;entryY=0.381;entryDx=0;entryDy=0;entryPerimeter=0;fontSize=12;startSize=8;endSize=8;" edge="1" parent="p_97QW8hRnv9CUj4u_Fj-2" source="DTX5b2P86f72rMg25cCh-2" target="DTX5b2P86f72rMg25cCh-5">
          <mxGeometry relative="1" as="geometry" />
        </mxCell>
        <mxCell id="DTX5b2P86f72rMg25cCh-64" value="Start" style="text;html=1;align=center;verticalAlign=middle;whiteSpace=wrap;rounded=0;" vertex="1" parent="p_97QW8hRnv9CUj4u_Fj-2">
          <mxGeometry x="405" y="133" width="60" height="30" as="geometry" />
        </mxCell>
        <mxCell id="DTX5b2P86f72rMg25cCh-65" value="End" style="text;html=1;align=center;verticalAlign=middle;whiteSpace=wrap;rounded=0;" vertex="1" parent="p_97QW8hRnv9CUj4u_Fj-2">
          <mxGeometry x="873" y="139.62" width="60" height="30" as="geometry" />
        </mxCell>
      </root>
    </mxGraphModel>
  </diagram>
  <diagram id="jWu4pf4hpNAuQi60m4tV" name="Prescription Processing at the Pharmacy">
    <mxGraphModel dx="1244" dy="596" grid="1" gridSize="10" guides="1" tooltips="1" connect="1" arrows="1" fold="1" page="1" pageScale="1" pageWidth="827" pageHeight="1169" math="0" shadow="0">
      <root>
        <mxCell id="0" />
        <mxCell id="1" parent="0" />
        <mxCell id="8ZicGdi8acZq2TXhcZc--1" value="&lt;span id=&quot;docs-internal-guid-e2b4b31f-7fff-f6f9-df7a-7b40b3967b14&quot; style=&quot;font-weight:normal;&quot;&gt;&lt;span style=&quot;font-size: 12pt; font-family: Calibri, sans-serif; background-color: transparent; font-weight: 700; font-variant-numeric: normal; font-variant-east-asian: normal; font-variant-alternates: normal; font-variant-position: normal; font-variant-emoji: normal; vertical-align: baseline; white-space-collapse: preserve;&quot;&gt;C. Prescription Processing&lt;/span&gt;&lt;/span&gt;" style="swimlane;html=1;childLayout=stackLayout;resizeParent=1;resizeParentMax=0;horizontal=1;startSize=20;horizontalStack=0;whiteSpace=wrap;" parent="1" vertex="1">
          <mxGeometry x="120" y="590" width="1020" height="370" as="geometry" />
        </mxCell>
        <mxCell id="8ZicGdi8acZq2TXhcZc--2" value="Pharmacy" style="swimlane;html=1;startSize=20;horizontal=0;" parent="8ZicGdi8acZq2TXhcZc--1" vertex="1">
          <mxGeometry y="20" width="1020" height="350" as="geometry" />
        </mxCell>
        <mxCell id="8ZicGdi8acZq2TXhcZc--6" value="" style="edgeStyle=orthogonalEdgeStyle;rounded=0;orthogonalLoop=1;jettySize=auto;html=1;" parent="8ZicGdi8acZq2TXhcZc--2" source="8ZicGdi8acZq2TXhcZc--7" target="8ZicGdi8acZq2TXhcZc--9" edge="1">
          <mxGeometry relative="1" as="geometry" />
        </mxCell>
        <mxCell id="8ZicGdi8acZq2TXhcZc--7" value="&lt;span id=&quot;docs-internal-guid-1a11b120-7fff-378b-0b35-0f0c3cd71365&quot;&gt;&lt;span style=&quot;font-size: 12pt; font-family: Calibri, sans-serif; background-color: transparent; font-variant-numeric: normal; font-variant-east-asian: normal; font-variant-alternates: normal; font-variant-position: normal; font-variant-emoji: normal; vertical-align: baseline; white-space-collapse: preserve;&quot;&gt;Verify prescription details.&lt;/span&gt;&lt;/span&gt;" style="rounded=1;whiteSpace=wrap;html=1;" parent="8ZicGdi8acZq2TXhcZc--2" vertex="1">
          <mxGeometry x="135" y="70" width="120" height="60" as="geometry" />
        </mxCell>
        <mxCell id="8ZicGdi8acZq2TXhcZc--8" value="" style="edgeStyle=orthogonalEdgeStyle;rounded=0;orthogonalLoop=1;jettySize=auto;html=1;" parent="8ZicGdi8acZq2TXhcZc--2" source="8ZicGdi8acZq2TXhcZc--9" target="8ZicGdi8acZq2TXhcZc--12" edge="1">
          <mxGeometry relative="1" as="geometry" />
        </mxCell>
        <mxCell id="8ZicGdi8acZq2TXhcZc--9" value="&lt;span id=&quot;docs-internal-guid-96ee0db9-7fff-908f-940b-16239a6195f6&quot;&gt;&lt;span style=&quot;font-size: 12pt; font-family: Calibri, sans-serif; background-color: transparent; font-variant-numeric: normal; font-variant-east-asian: normal; font-variant-alternates: normal; font-variant-position: normal; font-variant-emoji: normal; vertical-align: baseline; white-space-collapse: preserve;&quot;&gt;Process medication orders.&lt;/span&gt;&lt;/span&gt;" style="whiteSpace=wrap;html=1;rounded=1;" parent="8ZicGdi8acZq2TXhcZc--2" vertex="1">
          <mxGeometry x="340" y="65" width="120" height="70" as="geometry" />
        </mxCell>
        <mxCell id="8ZicGdi8acZq2TXhcZc--10" value="" style="edgeStyle=orthogonalEdgeStyle;rounded=0;orthogonalLoop=1;jettySize=auto;html=1;" parent="8ZicGdi8acZq2TXhcZc--2" source="8ZicGdi8acZq2TXhcZc--12" target="8ZicGdi8acZq2TXhcZc--15" edge="1">
          <mxGeometry relative="1" as="geometry" />
        </mxCell>
        <mxCell id="8ZicGdi8acZq2TXhcZc--11" value="no" style="edgeLabel;html=1;align=center;verticalAlign=middle;resizable=0;points=[];" parent="8ZicGdi8acZq2TXhcZc--10" vertex="1" connectable="0">
          <mxGeometry x="-0.0812" y="2" relative="1" as="geometry">
            <mxPoint as="offset" />
          </mxGeometry>
        </mxCell>
        <mxCell id="8ZicGdi8acZq2TXhcZc--12" value="&lt;span id=&quot;docs-internal-guid-4d4a07a8-7fff-268b-2f1d-739ea49a97e6&quot;&gt;&lt;span style=&quot;font-size: 12pt; font-family: Calibri, sans-serif; background-color: transparent; font-variant-numeric: normal; font-variant-east-asian: normal; font-variant-alternates: normal; font-variant-position: normal; font-variant-emoji: normal; vertical-align: baseline; white-space-collapse: preserve;&quot;&gt;Is the prescription clear?&lt;/span&gt;&lt;/span&gt;" style="rhombus;whiteSpace=wrap;html=1;rounded=1;" parent="8ZicGdi8acZq2TXhcZc--2" vertex="1">
          <mxGeometry x="555" y="50" width="105" height="100" as="geometry" />
        </mxCell>
        <mxCell id="8ZicGdi8acZq2TXhcZc--14" style="edgeStyle=orthogonalEdgeStyle;rounded=0;orthogonalLoop=1;jettySize=auto;html=1;exitX=0;exitY=0.5;exitDx=0;exitDy=0;" parent="8ZicGdi8acZq2TXhcZc--2" source="8ZicGdi8acZq2TXhcZc--15" target="8ZicGdi8acZq2TXhcZc--7" edge="1">
          <mxGeometry relative="1" as="geometry" />
        </mxCell>
        <mxCell id="8ZicGdi8acZq2TXhcZc--15" value="Contact prescriber for clarification" style="whiteSpace=wrap;html=1;rounded=1;" parent="8ZicGdi8acZq2TXhcZc--2" vertex="1">
          <mxGeometry x="547.5" y="250" width="120" height="70" as="geometry" />
        </mxCell>
        <mxCell id="8ZicGdi8acZq2TXhcZc--16" value="&lt;span id=&quot;docs-internal-guid-301ae9b6-7fff-bcf7-fdda-a57075e9d8e5&quot;&gt;&lt;span style=&quot;font-size: 12pt; font-family: Calibri, sans-serif; background-color: transparent; font-variant-numeric: normal; font-variant-east-asian: normal; font-variant-alternates: normal; font-variant-position: normal; font-variant-emoji: normal; vertical-align: baseline; white-space-collapse: preserve;&quot;&gt;Generate Bill for Payment&lt;/span&gt;&lt;/span&gt;" style="whiteSpace=wrap;html=1;rounded=1;" parent="8ZicGdi8acZq2TXhcZc--2" vertex="1">
          <mxGeometry x="730" y="60" width="120" height="80" as="geometry" />
        </mxCell>
        <mxCell id="8ZicGdi8acZq2TXhcZc--17" value="" style="edgeStyle=orthogonalEdgeStyle;rounded=0;orthogonalLoop=1;jettySize=auto;html=1;" parent="8ZicGdi8acZq2TXhcZc--2" source="8ZicGdi8acZq2TXhcZc--12" target="8ZicGdi8acZq2TXhcZc--16" edge="1">
          <mxGeometry relative="1" as="geometry" />
        </mxCell>
        <mxCell id="8ZicGdi8acZq2TXhcZc--18" value="yes&lt;div&gt;&lt;br&gt;&lt;/div&gt;" style="edgeLabel;html=1;align=center;verticalAlign=middle;resizable=0;points=[];" parent="8ZicGdi8acZq2TXhcZc--17" vertex="1" connectable="0">
          <mxGeometry x="-0.2294" y="-6" relative="1" as="geometry">
            <mxPoint as="offset" />
          </mxGeometry>
        </mxCell>
        <mxCell id="zhqoPk8OEWf0KaY341JA-2" style="edgeStyle=orthogonalEdgeStyle;rounded=0;orthogonalLoop=1;jettySize=auto;html=1;exitX=1;exitY=0.5;exitDx=0;exitDy=0;exitPerimeter=0;entryX=0;entryY=0.5;entryDx=0;entryDy=0;" parent="8ZicGdi8acZq2TXhcZc--2" source="zhqoPk8OEWf0KaY341JA-1" target="8ZicGdi8acZq2TXhcZc--7" edge="1">
          <mxGeometry relative="1" as="geometry" />
        </mxCell>
        <mxCell id="zhqoPk8OEWf0KaY341JA-1" value="" style="points=[[0.145,0.145,0],[0.5,0,0],[0.855,0.145,0],[1,0.5,0],[0.855,0.855,0],[0.5,1,0],[0.145,0.855,0],[0,0.5,0]];shape=mxgraph.bpmn.event;html=1;verticalLabelPosition=bottom;labelBackgroundColor=#ffffff;verticalAlign=top;align=center;perimeter=ellipsePerimeter;outlineConnect=0;aspect=fixed;outline=catching;symbol=link;" parent="8ZicGdi8acZq2TXhcZc--2" vertex="1">
          <mxGeometry x="35" y="75" width="50" height="50" as="geometry" />
        </mxCell>
        <mxCell id="YadLKniFsBMR-veDeFsW-1" value="&lt;p style=&quot;line-height: 1.38; margin-top: 0pt; margin-bottom: 0pt;&quot; dir=&quot;ltr&quot;&gt;&lt;span style=&quot;font-family: Calibri, sans-serif; font-size: 16px; white-space-collapse: preserve;&quot;&gt;B. Prescription Generation&lt;/span&gt;&lt;/p&gt;" style="text;html=1;align=center;verticalAlign=middle;whiteSpace=wrap;rounded=0;" parent="8ZicGdi8acZq2TXhcZc--2" vertex="1">
          <mxGeometry x="30" y="120" width="100" height="100" as="geometry" />
        </mxCell>
        <mxCell id="cJGFaKaxNFcy_9K9OFyC-1" value="" style="points=[[0.145,0.145,0],[0.5,0,0],[0.855,0.145,0],[1,0.5,0],[0.855,0.855,0],[0.5,1,0],[0.145,0.855,0],[0,0.5,0]];shape=mxgraph.bpmn.event;html=1;verticalLabelPosition=bottom;labelBackgroundColor=#ffffff;verticalAlign=top;align=center;perimeter=ellipsePerimeter;outlineConnect=0;aspect=fixed;outline=throwing;symbol=link;" parent="8ZicGdi8acZq2TXhcZc--2" vertex="1">
          <mxGeometry x="940" y="75" width="50" height="50" as="geometry" />
        </mxCell>
        <mxCell id="cJGFaKaxNFcy_9K9OFyC-2" style="edgeStyle=orthogonalEdgeStyle;rounded=0;orthogonalLoop=1;jettySize=auto;html=1;exitX=1;exitY=0.5;exitDx=0;exitDy=0;entryX=0;entryY=0.5;entryDx=0;entryDy=0;entryPerimeter=0;" parent="8ZicGdi8acZq2TXhcZc--2" source="8ZicGdi8acZq2TXhcZc--16" target="cJGFaKaxNFcy_9K9OFyC-1" edge="1">
          <mxGeometry relative="1" as="geometry" />
        </mxCell>
        <mxCell id="8ZicGdi8acZq2TXhcZc--20" value="D. Payment" style="text;html=1;align=center;verticalAlign=middle;resizable=0;points=[];autosize=1;strokeColor=none;fillColor=none;" parent="8ZicGdi8acZq2TXhcZc--2" vertex="1">
          <mxGeometry x="920" y="140" width="90" height="30" as="geometry" />
        </mxCell>
      </root>
    </mxGraphModel>
  </diagram>
  <diagram id="2xGM1WSDwdKoUVJTi5dc" name="Billing">
    <mxGraphModel dx="1426" dy="876" grid="1" gridSize="10" guides="1" tooltips="1" connect="1" arrows="1" fold="1" page="1" pageScale="1" pageWidth="827" pageHeight="1169" math="0" shadow="0">
      <root>
        <mxCell id="0" />
        <mxCell id="1" parent="0" />
        <mxCell id="oP6ZqlW_LYTUCbIMbuc_-1" value="D. Billing" style="swimlane;html=1;childLayout=stackLayout;resizeParent=1;resizeParentMax=0;horizontal=1;startSize=20;horizontalStack=0;whiteSpace=wrap;" parent="1" vertex="1">
          <mxGeometry x="130" y="730" width="660" height="270" as="geometry" />
        </mxCell>
        <mxCell id="oP6ZqlW_LYTUCbIMbuc_-2" value="Pharmacy Cashier/&lt;div&gt;Accounts Clerk&lt;/div&gt;" style="swimlane;html=1;startSize=50;horizontal=0;" parent="oP6ZqlW_LYTUCbIMbuc_-1" vertex="1">
          <mxGeometry y="20" width="660" height="250" as="geometry" />
        </mxCell>
        <mxCell id="oP6ZqlW_LYTUCbIMbuc_-8" style="edgeStyle=orthogonalEdgeStyle;rounded=0;orthogonalLoop=1;jettySize=auto;html=1;exitX=1;exitY=0.5;exitDx=0;exitDy=0;" parent="oP6ZqlW_LYTUCbIMbuc_-2" target="oP6ZqlW_LYTUCbIMbuc_-7" edge="1">
          <mxGeometry relative="1" as="geometry">
            <mxPoint x="110" y="85" as="sourcePoint" />
          </mxGeometry>
        </mxCell>
        <mxCell id="0XgE3nf51KIq6AmMpNEi-2" value="" style="edgeStyle=orthogonalEdgeStyle;rounded=0;orthogonalLoop=1;jettySize=auto;html=1;" parent="oP6ZqlW_LYTUCbIMbuc_-2" source="oP6ZqlW_LYTUCbIMbuc_-7" target="0XgE3nf51KIq6AmMpNEi-1" edge="1">
          <mxGeometry relative="1" as="geometry" />
        </mxCell>
        <mxCell id="oP6ZqlW_LYTUCbIMbuc_-7" value="Process payment" style="rounded=1;whiteSpace=wrap;html=1;" parent="oP6ZqlW_LYTUCbIMbuc_-2" vertex="1">
          <mxGeometry x="175" y="63" width="90" height="45" as="geometry" />
        </mxCell>
        <mxCell id="oP6ZqlW_LYTUCbIMbuc_-9" value="E. Medication Preparation &amp;amp; Dispensing" style="text;html=1;align=left;verticalAlign=middle;whiteSpace=wrap;rounded=0;" parent="oP6ZqlW_LYTUCbIMbuc_-2" vertex="1">
          <mxGeometry x="537" y="130" width="100" height="30" as="geometry" />
        </mxCell>
        <mxCell id="0XgE3nf51KIq6AmMpNEi-1" value="Is the bill&amp;nbsp;&lt;div&gt;covered by&lt;div&gt;&amp;nbsp;insurance or payment confirmed?&lt;/div&gt;&lt;/div&gt;" style="rhombus;whiteSpace=wrap;html=1;rounded=1;" parent="oP6ZqlW_LYTUCbIMbuc_-2" vertex="1">
          <mxGeometry x="320" y="27" width="150" height="118" as="geometry" />
        </mxCell>
        <mxCell id="0XgE3nf51KIq6AmMpNEi-3" style="edgeStyle=orthogonalEdgeStyle;rounded=0;orthogonalLoop=1;jettySize=auto;html=1;exitX=0.5;exitY=1;exitDx=0;exitDy=0;entryX=0.367;entryY=0.956;entryDx=0;entryDy=0;entryPerimeter=0;" parent="oP6ZqlW_LYTUCbIMbuc_-2" source="0XgE3nf51KIq6AmMpNEi-1" target="oP6ZqlW_LYTUCbIMbuc_-7" edge="1">
          <mxGeometry relative="1" as="geometry">
            <Array as="points">
              <mxPoint x="395" y="170" />
              <mxPoint x="208" y="170" />
            </Array>
          </mxGeometry>
        </mxCell>
        <mxCell id="0XgE3nf51KIq6AmMpNEi-4" value="No" style="edgeLabel;html=1;align=center;verticalAlign=middle;resizable=0;points=[];" parent="0XgE3nf51KIq6AmMpNEi-3" vertex="1" connectable="0">
          <mxGeometry x="-0.1811" y="2" relative="1" as="geometry">
            <mxPoint as="offset" />
          </mxGeometry>
        </mxCell>
        <mxCell id="Z_2NpyXdpnSFpcZTclIy-1" value="" style="points=[[0.145,0.145,0],[0.5,0,0],[0.855,0.145,0],[1,0.5,0],[0.855,0.855,0],[0.5,1,0],[0.145,0.855,0],[0,0.5,0]];shape=mxgraph.bpmn.event;html=1;verticalLabelPosition=bottom;labelBackgroundColor=#ffffff;verticalAlign=top;align=center;perimeter=ellipsePerimeter;outlineConnect=0;aspect=fixed;outline=throwing;symbol=link;" parent="oP6ZqlW_LYTUCbIMbuc_-2" vertex="1">
          <mxGeometry x="530" y="61" width="50" height="50" as="geometry" />
        </mxCell>
        <mxCell id="Z_2NpyXdpnSFpcZTclIy-2" style="edgeStyle=orthogonalEdgeStyle;rounded=0;orthogonalLoop=1;jettySize=auto;html=1;exitX=1;exitY=0.5;exitDx=0;exitDy=0;entryX=0;entryY=0.5;entryDx=0;entryDy=0;entryPerimeter=0;" parent="oP6ZqlW_LYTUCbIMbuc_-2" source="0XgE3nf51KIq6AmMpNEi-1" target="Z_2NpyXdpnSFpcZTclIy-1" edge="1">
          <mxGeometry relative="1" as="geometry" />
        </mxCell>
        <mxCell id="O7dxqRGuQVvyvQqxnQLV-13" value="&lt;b&gt;&lt;br&gt;&lt;/b&gt;&lt;div&gt;&lt;span style=&quot;font-family: Calibri, sans-serif; white-space-collapse: preserve;&quot;&gt;&lt;font&gt;&lt;b&gt;C. Prescription Processing&lt;/b&gt;&lt;/font&gt;&lt;/span&gt;&lt;/div&gt;" style="text;html=1;align=left;verticalAlign=middle;whiteSpace=wrap;rounded=0;" parent="oP6ZqlW_LYTUCbIMbuc_-2" vertex="1">
          <mxGeometry x="65" y="87.5" width="115" height="75" as="geometry" />
        </mxCell>
        <mxCell id="SSU47tGFv8rw33L0r6BL-1" value="" style="points=[[0.145,0.145,0],[0.5,0,0],[0.855,0.145,0],[1,0.5,0],[0.855,0.855,0],[0.5,1,0],[0.145,0.855,0],[0,0.5,0]];shape=mxgraph.bpmn.event;html=1;verticalLabelPosition=bottom;labelBackgroundColor=#ffffff;verticalAlign=top;align=center;perimeter=ellipsePerimeter;outlineConnect=0;aspect=fixed;outline=catching;symbol=link;" parent="oP6ZqlW_LYTUCbIMbuc_-2" vertex="1">
          <mxGeometry x="65" y="60.5" width="50" height="50" as="geometry" />
        </mxCell>
      </root>
    </mxGraphModel>
  </diagram>
  <diagram id="RqRfvywbEbSg6sqC0uQ1" name="Medication Preparation and Dispensing">
    <mxGraphModel dx="1244" dy="596" grid="1" gridSize="10" guides="1" tooltips="1" connect="1" arrows="1" fold="1" page="1" pageScale="1" pageWidth="827" pageHeight="1169" math="0" shadow="0">
      <root>
        <mxCell id="0" />
        <mxCell id="1" parent="0" />
        <mxCell id="zZfym4zqIfahzhfzE-jn-1" value="&lt;span id=&quot;docs-internal-guid-58727f4b-7fff-f249-35e5-a7d2e6c0b355&quot; style=&quot;font-weight:normal;&quot;&gt;&lt;span style=&quot;font-size: 12pt; font-family: Calibri, sans-serif; background-color: transparent; font-weight: 700; font-variant-numeric: normal; font-variant-east-asian: normal; font-variant-alternates: normal; font-variant-position: normal; font-variant-emoji: normal; vertical-align: baseline; white-space-collapse: preserve;&quot;&gt;E: Medication Preparation and Dispensing&lt;/span&gt;&lt;/span&gt;" style="swimlane;html=1;childLayout=stackLayout;resizeParent=1;resizeParentMax=0;horizontal=1;startSize=20;horizontalStack=0;whiteSpace=wrap;" parent="1" vertex="1">
          <mxGeometry x="390" y="350" width="1202.5" height="510" as="geometry" />
        </mxCell>
        <mxCell id="zZfym4zqIfahzhfzE-jn-2" value="Pharmacy Technician" style="swimlane;html=1;startSize=20;horizontal=0;" parent="zZfym4zqIfahzhfzE-jn-1" vertex="1">
          <mxGeometry y="20" width="1202.5" height="490" as="geometry" />
        </mxCell>
        <mxCell id="zZfym4zqIfahzhfzE-jn-3" value="" style="edgeStyle=orthogonalEdgeStyle;rounded=0;orthogonalLoop=1;jettySize=auto;html=1;" parent="zZfym4zqIfahzhfzE-jn-2" target="zZfym4zqIfahzhfzE-jn-7" edge="1">
          <mxGeometry relative="1" as="geometry">
            <mxPoint x="89.99999999999977" y="100" as="sourcePoint" />
          </mxGeometry>
        </mxCell>
        <mxCell id="zZfym4zqIfahzhfzE-jn-5" value="&lt;div&gt;&lt;b&gt;D. Payment&amp;nbsp;&lt;/b&gt;&lt;/div&gt;" style="text;html=1;align=center;verticalAlign=middle;whiteSpace=wrap;rounded=0;" parent="zZfym4zqIfahzhfzE-jn-2" vertex="1">
          <mxGeometry x="35" y="150" width="60" height="30" as="geometry" />
        </mxCell>
        <mxCell id="zZfym4zqIfahzhfzE-jn-6" value="" style="edgeStyle=orthogonalEdgeStyle;rounded=0;orthogonalLoop=1;jettySize=auto;html=1;" parent="zZfym4zqIfahzhfzE-jn-2" source="zZfym4zqIfahzhfzE-jn-7" target="zZfym4zqIfahzhfzE-jn-9" edge="1">
          <mxGeometry relative="1" as="geometry" />
        </mxCell>
        <mxCell id="zZfym4zqIfahzhfzE-jn-7" value="&lt;span id=&quot;docs-internal-guid-a55433a1-7fff-141c-04d3-b6f5fa62e56a&quot;&gt;&lt;span style=&quot;font-size: 12pt; font-family: Calibri, sans-serif; background-color: transparent; font-variant-numeric: normal; font-variant-east-asian: normal; font-variant-alternates: normal; font-variant-position: normal; font-variant-emoji: normal; vertical-align: baseline; white-space-collapse: preserve;&quot;&gt;Prepare medications based on orders.&lt;/span&gt;&lt;/span&gt;" style="rounded=1;whiteSpace=wrap;html=1;" parent="zZfym4zqIfahzhfzE-jn-2" vertex="1">
          <mxGeometry x="135" y="70" width="125" height="60" as="geometry" />
        </mxCell>
        <mxCell id="zZfym4zqIfahzhfzE-jn-29" value="" style="edgeStyle=orthogonalEdgeStyle;rounded=0;orthogonalLoop=1;jettySize=auto;html=1;" parent="zZfym4zqIfahzhfzE-jn-2" source="zZfym4zqIfahzhfzE-jn-9" target="zZfym4zqIfahzhfzE-jn-28" edge="1">
          <mxGeometry relative="1" as="geometry" />
        </mxCell>
        <mxCell id="zZfym4zqIfahzhfzE-jn-9" value="&lt;span id=&quot;docs-internal-guid-e6810fb0-7fff-4fe5-f731-bf7b79acaaa8&quot;&gt;&lt;span style=&quot;font-size: 12pt; font-family: Calibri, sans-serif; background-color: transparent; font-variant-numeric: normal; font-variant-east-asian: normal; font-variant-alternates: normal; font-variant-position: normal; font-variant-emoji: normal; vertical-align: baseline; white-space-collapse: preserve;&quot;&gt;Label medications.&lt;/span&gt;&lt;/span&gt;" style="whiteSpace=wrap;html=1;rounded=1;" parent="zZfym4zqIfahzhfzE-jn-2" vertex="1">
          <mxGeometry x="340" y="65" width="120" height="70" as="geometry" />
        </mxCell>
        <mxCell id="zZfym4zqIfahzhfzE-jn-14" style="edgeStyle=orthogonalEdgeStyle;rounded=0;orthogonalLoop=1;jettySize=auto;html=1;exitX=0;exitY=0.5;exitDx=0;exitDy=0;" parent="zZfym4zqIfahzhfzE-jn-2" source="zZfym4zqIfahzhfzE-jn-15" target="zZfym4zqIfahzhfzE-jn-7" edge="1">
          <mxGeometry relative="1" as="geometry" />
        </mxCell>
        <mxCell id="zZfym4zqIfahzhfzE-jn-30" value="" style="edgeStyle=orthogonalEdgeStyle;rounded=0;orthogonalLoop=1;jettySize=auto;html=1;" parent="zZfym4zqIfahzhfzE-jn-2" source="zZfym4zqIfahzhfzE-jn-28" target="zZfym4zqIfahzhfzE-jn-12" edge="1">
          <mxGeometry relative="1" as="geometry" />
        </mxCell>
        <mxCell id="zZfym4zqIfahzhfzE-jn-28" value="&lt;span id=&quot;docs-internal-guid-0b859f3b-7fff-0bdd-2969-af9bf901f65b&quot;&gt;&lt;span style=&quot;font-size: 12pt; font-family: Calibri, sans-serif; background-color: transparent; font-variant-numeric: normal; font-variant-east-asian: normal; font-variant-alternates: normal; font-variant-position: normal; font-variant-emoji: normal; vertical-align: baseline; white-space-collapse: preserve;&quot;&gt;Verify dispensing against prescription.&lt;/span&gt;&lt;/span&gt;" style="whiteSpace=wrap;html=1;rounded=1;" parent="zZfym4zqIfahzhfzE-jn-2" vertex="1">
          <mxGeometry x="550" y="70" width="130" height="60" as="geometry" />
        </mxCell>
        <mxCell id="1NSWkbQbren_WZWddjOT-7" style="edgeStyle=orthogonalEdgeStyle;rounded=0;orthogonalLoop=1;jettySize=auto;html=1;exitX=0.5;exitY=1;exitDx=0;exitDy=0;entryX=0.5;entryY=0;entryDx=0;entryDy=0;" parent="zZfym4zqIfahzhfzE-jn-2" source="zZfym4zqIfahzhfzE-jn-12" target="zZfym4zqIfahzhfzE-jn-15" edge="1">
          <mxGeometry relative="1" as="geometry" />
        </mxCell>
        <mxCell id="1NSWkbQbren_WZWddjOT-8" value="no" style="edgeLabel;html=1;align=center;verticalAlign=middle;resizable=0;points=[];" parent="1NSWkbQbren_WZWddjOT-7" vertex="1" connectable="0">
          <mxGeometry x="-0.0095" y="2" relative="1" as="geometry">
            <mxPoint as="offset" />
          </mxGeometry>
        </mxCell>
        <mxCell id="zZfym4zqIfahzhfzE-jn-12" value="&lt;span id=&quot;docs-internal-guid-6a9ca846-7fff-3780-7c74-45ebf5b0348f&quot;&gt;&lt;span style=&quot;font-size: 12pt; font-family: Calibri, sans-serif; background-color: transparent; font-variant-numeric: normal; font-variant-east-asian: normal; font-variant-alternates: normal; font-variant-position: normal; font-variant-emoji: normal; vertical-align: baseline; white-space-collapse: preserve;&quot;&gt;Is &lt;/span&gt;&lt;/span&gt;&lt;span style=&quot;background-color: transparent; font-family: Calibri, sans-serif; font-size: 12pt; white-space-collapse: preserve; color: light-dark(rgb(0, 0, 0), rgb(255, 255, 255));&quot;&gt;the&lt;/span&gt;&lt;div&gt;&lt;span style=&quot;background-color: transparent; font-family: Calibri, sans-serif; font-size: 12pt; white-space-collapse: preserve; color: light-dark(rgb(0, 0, 0), rgb(255, 255, 255));&quot;&gt; medication&lt;/span&gt;&lt;/div&gt;&lt;div&gt;&lt;span style=&quot;background-color: transparent; font-family: Calibri, sans-serif; font-size: 12pt; white-space-collapse: preserve; color: light-dark(rgb(0, 0, 0), rgb(255, 255, 255));&quot;&gt; ready&lt;/span&gt;&lt;span style=&quot;background-color: transparent; color: light-dark(rgb(0, 0, 0), rgb(255, 255, 255)); font-family: Calibri, sans-serif; font-size: 12pt; white-space-collapse: preserve;&quot;&gt; for&lt;/span&gt;&lt;/div&gt;&lt;div&gt;&lt;div&gt;&lt;div&gt;&lt;span&gt;&lt;span style=&quot;font-size: 12pt; font-family: Calibri, sans-serif; background-color: transparent; font-variant-numeric: normal; font-variant-east-asian: normal; font-variant-alternates: normal; font-variant-position: normal; font-variant-emoji: normal; vertical-align: baseline; white-space-collapse: preserve;&quot;&gt; dispensing?&lt;/span&gt;&lt;/span&gt;&lt;/div&gt;&lt;/div&gt;&lt;/div&gt;" style="rhombus;whiteSpace=wrap;html=1;rounded=1;" parent="zZfym4zqIfahzhfzE-jn-2" vertex="1">
          <mxGeometry x="727.5" y="30" width="152.5" height="140" as="geometry" />
        </mxCell>
        <mxCell id="zZfym4zqIfahzhfzE-jn-15" value="&lt;br&gt;&lt;span id=&quot;docs-internal-guid-005a3d13-7fff-ebbf-42a0-8937daa0fcdb&quot;&gt;&lt;span style=&quot;font-size: 12pt; font-family: Calibri, sans-serif; background-color: transparent; font-variant-numeric: normal; font-variant-east-asian: normal; font-variant-alternates: normal; font-variant-position: normal; font-variant-emoji: normal; vertical-align: baseline; white-space-collapse: preserve;&quot;&gt;Address errors or issues in preparation.&lt;/span&gt;&lt;/span&gt;" style="whiteSpace=wrap;html=1;rounded=1;" parent="zZfym4zqIfahzhfzE-jn-2" vertex="1">
          <mxGeometry x="743.75" y="260" width="120" height="70" as="geometry" />
        </mxCell>
        <mxCell id="zZfym4zqIfahzhfzE-jn-16" value="&lt;span id=&quot;docs-internal-guid-da8f7de8-7fff-baa9-ee79-986981aacaf8&quot;&gt;&lt;span style=&quot;font-size: 12pt; font-family: Calibri, sans-serif; background-color: transparent; font-variant-numeric: normal; font-variant-east-asian: normal; font-variant-alternates: normal; font-variant-position: normal; font-variant-emoji: normal; vertical-align: baseline; white-space-collapse: preserve;&quot;&gt;Package Medication For Dispatch&lt;/span&gt;&lt;/span&gt;" style="whiteSpace=wrap;html=1;rounded=1;" parent="zZfym4zqIfahzhfzE-jn-2" vertex="1">
          <mxGeometry x="970" y="60" width="120" height="80" as="geometry" />
        </mxCell>
        <mxCell id="zZfym4zqIfahzhfzE-jn-17" value="" style="edgeStyle=orthogonalEdgeStyle;rounded=0;orthogonalLoop=1;jettySize=auto;html=1;" parent="zZfym4zqIfahzhfzE-jn-2" source="zZfym4zqIfahzhfzE-jn-12" target="zZfym4zqIfahzhfzE-jn-16" edge="1">
          <mxGeometry relative="1" as="geometry" />
        </mxCell>
        <mxCell id="zZfym4zqIfahzhfzE-jn-18" value="yes&lt;div&gt;&lt;br&gt;&lt;/div&gt;" style="edgeLabel;html=1;align=center;verticalAlign=middle;resizable=0;points=[];" parent="zZfym4zqIfahzhfzE-jn-17" vertex="1" connectable="0">
          <mxGeometry x="-0.2294" y="-6" relative="1" as="geometry">
            <mxPoint as="offset" />
          </mxGeometry>
        </mxCell>
        <mxCell id="zZfym4zqIfahzhfzE-jn-31" value="Yes" style="edgeLabel;html=1;align=center;verticalAlign=middle;resizable=0;points=[];" parent="zZfym4zqIfahzhfzE-jn-17" vertex="1" connectable="0">
          <mxGeometry x="-0.3132" y="-2" relative="1" as="geometry">
            <mxPoint as="offset" />
          </mxGeometry>
        </mxCell>
        <mxCell id="zZfym4zqIfahzhfzE-jn-19" value="" style="edgeStyle=orthogonalEdgeStyle;rounded=0;orthogonalLoop=1;jettySize=auto;html=1;" parent="zZfym4zqIfahzhfzE-jn-2" source="zZfym4zqIfahzhfzE-jn-16" edge="1">
          <mxGeometry relative="1" as="geometry">
            <mxPoint x="1132.5" y="100" as="targetPoint" />
          </mxGeometry>
        </mxCell>
        <mxCell id="zZfym4zqIfahzhfzE-jn-20" value="&lt;b&gt;F. Medication&lt;/b&gt;&lt;div&gt;&lt;b&gt;&amp;nbsp;Delivery&lt;/b&gt;&lt;/div&gt;" style="text;html=1;align=center;verticalAlign=middle;resizable=0;points=[];autosize=1;strokeColor=none;fillColor=none;" parent="zZfym4zqIfahzhfzE-jn-2" vertex="1">
          <mxGeometry x="1102.5" y="143" width="100" height="40" as="geometry" />
        </mxCell>
        <mxCell id="1NSWkbQbren_WZWddjOT-2" value="" style="points=[[0.145,0.145,0],[0.5,0,0],[0.855,0.145,0],[1,0.5,0],[0.855,0.855,0],[0.5,1,0],[0.145,0.855,0],[0,0.5,0]];shape=mxgraph.bpmn.event;html=1;verticalLabelPosition=bottom;labelBackgroundColor=#ffffff;verticalAlign=top;align=center;perimeter=ellipsePerimeter;outlineConnect=0;aspect=fixed;outline=catching;symbol=link;" parent="zZfym4zqIfahzhfzE-jn-2" vertex="1">
          <mxGeometry x="40" y="75" width="50" height="50" as="geometry" />
        </mxCell>
        <mxCell id="1NSWkbQbren_WZWddjOT-9" value="" style="points=[[0.145,0.145,0],[0.5,0,0],[0.855,0.145,0],[1,0.5,0],[0.855,0.855,0],[0.5,1,0],[0.145,0.855,0],[0,0.5,0]];shape=mxgraph.bpmn.event;html=1;verticalLabelPosition=bottom;labelBackgroundColor=#ffffff;verticalAlign=top;align=center;perimeter=ellipsePerimeter;outlineConnect=0;aspect=fixed;outline=throwing;symbol=link;" parent="zZfym4zqIfahzhfzE-jn-2" vertex="1">
          <mxGeometry x="1132.5" y="70" width="50" height="50" as="geometry" />
        </mxCell>
      </root>
    </mxGraphModel>
  </diagram>
  <diagram id="yKQb6EDtVfQY0wfYbikE" name="Medication Delivery">
    <mxGraphModel dx="1244" dy="596" grid="1" gridSize="10" guides="1" tooltips="1" connect="1" arrows="1" fold="1" page="1" pageScale="1" pageWidth="827" pageHeight="1169" math="0" shadow="0">
      <root>
        <mxCell id="0" />
        <mxCell id="1" parent="0" />
        <mxCell id="QcInWSNMJhj3qPAx2kZK-1" value="&lt;span id=&quot;docs-internal-guid-58727f4b-7fff-f249-35e5-a7d2e6c0b355&quot; style=&quot;font-weight:normal;&quot;&gt;&lt;span style=&quot;font-size: 12pt; font-family: Calibri, sans-serif; background-color: transparent; font-weight: 700; font-variant-numeric: normal; font-variant-east-asian: normal; font-variant-alternates: normal; font-variant-position: normal; font-variant-emoji: normal; vertical-align: baseline; white-space-collapse: preserve;&quot;&gt;F: Medication Delivery&lt;/span&gt;&lt;/span&gt;" style="swimlane;html=1;childLayout=stackLayout;resizeParent=1;resizeParentMax=0;horizontal=1;startSize=20;horizontalStack=0;whiteSpace=wrap;" parent="1" vertex="1">
          <mxGeometry x="380" y="320" width="970" height="430" as="geometry" />
        </mxCell>
        <mxCell id="QcInWSNMJhj3qPAx2kZK-2" value="Pharmacy" style="swimlane;html=1;startSize=20;horizontal=0;" parent="QcInWSNMJhj3qPAx2kZK-1" vertex="1">
          <mxGeometry y="20" width="970" height="410" as="geometry" />
        </mxCell>
        <mxCell id="QcInWSNMJhj3qPAx2kZK-3" value="" style="edgeStyle=orthogonalEdgeStyle;rounded=0;orthogonalLoop=1;jettySize=auto;html=1;" parent="QcInWSNMJhj3qPAx2kZK-2" target="QcInWSNMJhj3qPAx2kZK-6" edge="1">
          <mxGeometry relative="1" as="geometry">
            <mxPoint x="89.99999999999977" y="100" as="sourcePoint" />
          </mxGeometry>
        </mxCell>
        <mxCell id="QcInWSNMJhj3qPAx2kZK-4" value="&lt;div&gt;&lt;b&gt;D. Payment&amp;nbsp;&lt;/b&gt;&lt;/div&gt;" style="text;html=1;align=center;verticalAlign=middle;whiteSpace=wrap;rounded=0;" parent="QcInWSNMJhj3qPAx2kZK-2" vertex="1">
          <mxGeometry x="35" y="150" width="60" height="30" as="geometry" />
        </mxCell>
        <mxCell id="a3A-oK6fOyctaLjgmHPi-2" value="" style="edgeStyle=orthogonalEdgeStyle;rounded=0;orthogonalLoop=1;jettySize=auto;html=1;" parent="QcInWSNMJhj3qPAx2kZK-2" source="QcInWSNMJhj3qPAx2kZK-6" target="a3A-oK6fOyctaLjgmHPi-1" edge="1">
          <mxGeometry relative="1" as="geometry" />
        </mxCell>
        <mxCell id="QcInWSNMJhj3qPAx2kZK-6" value="&lt;span id=&quot;docs-internal-guid-a55433a1-7fff-141c-04d3-b6f5fa62e56a&quot;&gt;&lt;span style=&quot;font-size: 12pt; font-family: Calibri, sans-serif; background-color: transparent; font-variant-numeric: normal; font-variant-east-asian: normal; font-variant-alternates: normal; font-variant-position: normal; font-variant-emoji: normal; vertical-align: baseline; white-space-collapse: preserve;&quot;&gt;Print out drug labels with dosage instructions, patient details and warnings&lt;/span&gt;&lt;/span&gt;" style="rounded=1;whiteSpace=wrap;html=1;" parent="QcInWSNMJhj3qPAx2kZK-2" vertex="1">
          <mxGeometry x="160" y="55" width="175" height="90" as="geometry" />
        </mxCell>
        <mxCell id="QcInWSNMJhj3qPAx2kZK-21" value="&lt;span style=&quot;text-wrap-mode: wrap;&quot;&gt;&lt;b&gt;H: Medication follow up and monitoring&lt;/b&gt;&lt;/span&gt;" style="text;html=1;align=center;verticalAlign=middle;resizable=0;points=[];autosize=1;strokeColor=none;fillColor=none;" parent="QcInWSNMJhj3qPAx2kZK-2" vertex="1">
          <mxGeometry x="770" y="155" width="250" height="30" as="geometry" />
        </mxCell>
        <mxCell id="QcInWSNMJhj3qPAx2kZK-22" value="" style="points=[[0.145,0.145,0],[0.5,0,0],[0.855,0.145,0],[1,0.5,0],[0.855,0.855,0],[0.5,1,0],[0.145,0.855,0],[0,0.5,0]];shape=mxgraph.bpmn.event;html=1;verticalLabelPosition=bottom;labelBackgroundColor=#ffffff;verticalAlign=top;align=center;perimeter=ellipsePerimeter;outlineConnect=0;aspect=fixed;outline=catching;symbol=link;" parent="QcInWSNMJhj3qPAx2kZK-2" vertex="1">
          <mxGeometry x="40" y="75" width="50" height="50" as="geometry" />
        </mxCell>
        <mxCell id="QcInWSNMJhj3qPAx2kZK-23" value="" style="points=[[0.145,0.145,0],[0.5,0,0],[0.855,0.145,0],[1,0.5,0],[0.855,0.855,0],[0.5,1,0],[0.145,0.855,0],[0,0.5,0]];shape=mxgraph.bpmn.event;html=1;verticalLabelPosition=bottom;labelBackgroundColor=#ffffff;verticalAlign=top;align=center;perimeter=ellipsePerimeter;outlineConnect=0;aspect=fixed;outline=throwing;symbol=link;" parent="QcInWSNMJhj3qPAx2kZK-2" vertex="1">
          <mxGeometry x="870" y="75" width="50" height="50" as="geometry" />
        </mxCell>
        <mxCell id="a3A-oK6fOyctaLjgmHPi-4" value="" style="edgeStyle=orthogonalEdgeStyle;rounded=0;orthogonalLoop=1;jettySize=auto;html=1;" parent="QcInWSNMJhj3qPAx2kZK-2" source="a3A-oK6fOyctaLjgmHPi-1" target="a3A-oK6fOyctaLjgmHPi-3" edge="1">
          <mxGeometry relative="1" as="geometry" />
        </mxCell>
        <mxCell id="a3A-oK6fOyctaLjgmHPi-1" value="Deliver medications" style="whiteSpace=wrap;html=1;rounded=1;" parent="QcInWSNMJhj3qPAx2kZK-2" vertex="1">
          <mxGeometry x="442.5" y="70" width="120" height="60" as="geometry" />
        </mxCell>
        <mxCell id="a3A-oK6fOyctaLjgmHPi-6" value="" style="edgeStyle=orthogonalEdgeStyle;rounded=0;orthogonalLoop=1;jettySize=auto;html=1;" parent="QcInWSNMJhj3qPAx2kZK-2" source="a3A-oK6fOyctaLjgmHPi-3" edge="1">
          <mxGeometry relative="1" as="geometry">
            <mxPoint x="858.75" y="100" as="targetPoint" />
          </mxGeometry>
        </mxCell>
        <mxCell id="JdNrgufm1PDsihu-g9Le-1" value="yes" style="edgeLabel;html=1;align=center;verticalAlign=middle;resizable=0;points=[];" parent="a3A-oK6fOyctaLjgmHPi-6" vertex="1" connectable="0">
          <mxGeometry x="-0.0935" y="-5" relative="1" as="geometry">
            <mxPoint as="offset" />
          </mxGeometry>
        </mxCell>
        <mxCell id="a3A-oK6fOyctaLjgmHPi-8" value="" style="edgeStyle=orthogonalEdgeStyle;rounded=0;orthogonalLoop=1;jettySize=auto;html=1;" parent="QcInWSNMJhj3qPAx2kZK-2" source="a3A-oK6fOyctaLjgmHPi-3" edge="1">
          <mxGeometry relative="1" as="geometry">
            <mxPoint x="721.230769230769" y="250" as="targetPoint" />
          </mxGeometry>
        </mxCell>
        <mxCell id="JdNrgufm1PDsihu-g9Le-2" value="no" style="edgeLabel;html=1;align=center;verticalAlign=middle;resizable=0;points=[];" parent="a3A-oK6fOyctaLjgmHPi-8" vertex="1" connectable="0">
          <mxGeometry x="-0.2383" y="5" relative="1" as="geometry">
            <mxPoint as="offset" />
          </mxGeometry>
        </mxCell>
        <mxCell id="a3A-oK6fOyctaLjgmHPi-3" value="Is delivery a drug refill?" style="rhombus;whiteSpace=wrap;html=1;rounded=1;" parent="QcInWSNMJhj3qPAx2kZK-2" vertex="1">
          <mxGeometry x="662.5" y="50" width="117.5" height="100" as="geometry" />
        </mxCell>
        <mxCell id="JdNrgufm1PDsihu-g9Le-3" value="" style="points=[[0.145,0.145,0],[0.5,0,0],[0.855,0.145,0],[1,0.5,0],[0.855,0.855,0],[0.5,1,0],[0.145,0.855,0],[0,0.5,0]];shape=mxgraph.bpmn.event;html=1;verticalLabelPosition=bottom;labelBackgroundColor=#ffffff;verticalAlign=top;align=center;perimeter=ellipsePerimeter;outlineConnect=0;aspect=fixed;outline=throwing;symbol=link;" parent="QcInWSNMJhj3qPAx2kZK-2" vertex="1">
          <mxGeometry x="700" y="250" width="50" height="50" as="geometry" />
        </mxCell>
        <mxCell id="JdNrgufm1PDsihu-g9Le-4" value="&lt;span style=&quot;text-wrap-mode: wrap;&quot;&gt;&lt;b&gt;G: Patient counselling and medication&lt;/b&gt;&lt;/span&gt;" style="text;html=1;align=center;verticalAlign=middle;resizable=0;points=[];autosize=1;strokeColor=none;fillColor=none;" parent="QcInWSNMJhj3qPAx2kZK-2" vertex="1">
          <mxGeometry x="615" y="340" width="240" height="30" as="geometry" />
        </mxCell>
      </root>
    </mxGraphModel>
  </diagram>
  <diagram id="W3Gnbm-r5BXhqWsx0tzm" name="Patient Counseling and Education">
    <mxGraphModel dx="1244" dy="596" grid="1" gridSize="10" guides="1" tooltips="1" connect="1" arrows="1" fold="1" page="1" pageScale="1" pageWidth="827" pageHeight="1169" math="0" shadow="0">
      <root>
        <mxCell id="0" />
        <mxCell id="1" parent="0" />
        <mxCell id="JZwYUCtv63FYpOucSwEM-1" value="&lt;span id=&quot;docs-internal-guid-40bf6a3a-7fff-5465-b711-f05a5e25a96d&quot; style=&quot;font-weight:normal;&quot;&gt;&lt;span style=&quot;font-size: 12pt; font-family: Calibri, sans-serif; background-color: transparent; font-weight: 700; font-variant-numeric: normal; font-variant-east-asian: normal; font-variant-alternates: normal; font-variant-position: normal; font-variant-emoji: normal; vertical-align: baseline; white-space-collapse: preserve;&quot;&gt;G: Patient Counseling and Education&lt;/span&gt;&lt;/span&gt;" style="swimlane;html=1;childLayout=stackLayout;resizeParent=1;resizeParentMax=0;horizontal=1;startSize=20;horizontalStack=0;whiteSpace=wrap;" parent="1" vertex="1">
          <mxGeometry x="270" y="280" width="1190" height="510" as="geometry" />
        </mxCell>
        <mxCell id="JZwYUCtv63FYpOucSwEM-2" value="Pharmacy" style="swimlane;html=1;startSize=20;horizontal=0;" parent="JZwYUCtv63FYpOucSwEM-1" vertex="1">
          <mxGeometry y="20" width="1190" height="490" as="geometry" />
        </mxCell>
        <mxCell id="JZwYUCtv63FYpOucSwEM-3" value="" style="edgeStyle=orthogonalEdgeStyle;rounded=0;orthogonalLoop=1;jettySize=auto;html=1;" parent="JZwYUCtv63FYpOucSwEM-2" target="JZwYUCtv63FYpOucSwEM-7" edge="1">
          <mxGeometry relative="1" as="geometry">
            <mxPoint x="89.99999999999977" y="100" as="sourcePoint" />
          </mxGeometry>
        </mxCell>
        <mxCell id="JZwYUCtv63FYpOucSwEM-5" value="&lt;div&gt;&lt;span style=&quot;font-family: Calibri, sans-serif; font-size: 16px; font-weight: 700; white-space-collapse: preserve;&quot;&gt;F. Medication Delivery&lt;/span&gt;&lt;/div&gt;" style="text;html=1;align=left;verticalAlign=middle;whiteSpace=wrap;rounded=0;" parent="JZwYUCtv63FYpOucSwEM-2" vertex="1">
          <mxGeometry x="40" y="220" width="95" height="30" as="geometry" />
        </mxCell>
        <mxCell id="JZwYUCtv63FYpOucSwEM-6" value="" style="edgeStyle=orthogonalEdgeStyle;rounded=0;orthogonalLoop=1;jettySize=auto;html=1;" parent="JZwYUCtv63FYpOucSwEM-2" source="JZwYUCtv63FYpOucSwEM-7" target="JZwYUCtv63FYpOucSwEM-9" edge="1">
          <mxGeometry relative="1" as="geometry" />
        </mxCell>
        <mxCell id="JZwYUCtv63FYpOucSwEM-7" value="&lt;span id=&quot;docs-internal-guid-08466d4f-7fff-7cdd-1c93-75fc357702e4&quot;&gt;&lt;span style=&quot;font-size: 12pt; font-family: Calibri, sans-serif; background-color: transparent; font-variant-numeric: normal; font-variant-east-asian: normal; font-variant-alternates: normal; font-variant-position: normal; font-variant-emoji: normal; vertical-align: baseline; white-space-collapse: preserve;&quot;&gt;Educate patients on medication usage.&lt;/span&gt;&lt;/span&gt;" style="rounded=1;whiteSpace=wrap;html=1;" parent="JZwYUCtv63FYpOucSwEM-2" vertex="1">
          <mxGeometry x="135" y="70" width="120" height="60" as="geometry" />
        </mxCell>
        <mxCell id="JZwYUCtv63FYpOucSwEM-8" value="" style="edgeStyle=orthogonalEdgeStyle;rounded=0;orthogonalLoop=1;jettySize=auto;html=1;" parent="JZwYUCtv63FYpOucSwEM-2" source="JZwYUCtv63FYpOucSwEM-9" target="JZwYUCtv63FYpOucSwEM-12" edge="1">
          <mxGeometry relative="1" as="geometry" />
        </mxCell>
        <mxCell id="JZwYUCtv63FYpOucSwEM-9" value="&lt;span id=&quot;docs-internal-guid-fd3f52b4-7fff-dc1e-ce05-29d882c1ead8&quot;&gt;&lt;span style=&quot;font-size: 12pt; font-family: Calibri, sans-serif; background-color: transparent; font-variant-numeric: normal; font-variant-east-asian: normal; font-variant-alternates: normal; font-variant-position: normal; font-variant-emoji: normal; vertical-align: baseline; white-space-collapse: preserve;&quot;&gt;Assess patient understanding.&lt;/span&gt;&lt;/span&gt;" style="whiteSpace=wrap;html=1;rounded=1;" parent="JZwYUCtv63FYpOucSwEM-2" vertex="1">
          <mxGeometry x="340" y="65" width="120" height="70" as="geometry" />
        </mxCell>
        <mxCell id="JZwYUCtv63FYpOucSwEM-11" value="" style="edgeStyle=orthogonalEdgeStyle;rounded=0;orthogonalLoop=1;jettySize=auto;html=1;" parent="JZwYUCtv63FYpOucSwEM-2" source="JZwYUCtv63FYpOucSwEM-12" target="JZwYUCtv63FYpOucSwEM-15" edge="1">
          <mxGeometry relative="1" as="geometry" />
        </mxCell>
        <mxCell id="JZwYUCtv63FYpOucSwEM-12" value="&lt;span id=&quot;docs-internal-guid-ee0584a3-7fff-3e59-4238-3299f351ed18&quot;&gt;&lt;span style=&quot;font-size: 12pt; font-family: Calibri, sans-serif; background-color: transparent; font-variant-numeric: normal; font-variant-east-asian: normal; font-variant-alternates: normal; font-variant-position: normal; font-variant-emoji: normal; vertical-align: baseline; white-space-collapse: preserve;&quot;&gt;Provide educational materials.&lt;/span&gt;&lt;/span&gt;" style="whiteSpace=wrap;html=1;rounded=1;" parent="JZwYUCtv63FYpOucSwEM-2" vertex="1">
          <mxGeometry x="560" y="70" width="120" height="60" as="geometry" />
        </mxCell>
        <mxCell id="_Z2M9cx-iRhE6JNU8CoT-7" style="edgeStyle=orthogonalEdgeStyle;rounded=0;orthogonalLoop=1;jettySize=auto;html=1;exitX=0.5;exitY=1;exitDx=0;exitDy=0;entryX=0.5;entryY=0;entryDx=0;entryDy=0;" parent="JZwYUCtv63FYpOucSwEM-2" source="JZwYUCtv63FYpOucSwEM-15" target="JZwYUCtv63FYpOucSwEM-17" edge="1">
          <mxGeometry relative="1" as="geometry" />
        </mxCell>
        <mxCell id="_Z2M9cx-iRhE6JNU8CoT-8" value="no" style="edgeLabel;html=1;align=center;verticalAlign=middle;resizable=0;points=[];" parent="_Z2M9cx-iRhE6JNU8CoT-7" vertex="1" connectable="0">
          <mxGeometry x="-0.0444" y="1" relative="1" as="geometry">
            <mxPoint y="-1" as="offset" />
          </mxGeometry>
        </mxCell>
        <mxCell id="JZwYUCtv63FYpOucSwEM-15" value="&lt;span id=&quot;docs-internal-guid-78abf80c-7fff-6bc4-bfbf-6b5283011410&quot;&gt;&lt;span style=&quot;font-size: 12pt; font-family: Calibri, sans-serif; background-color: transparent; font-variant-numeric: normal; font-variant-east-asian: normal; font-variant-alternates: normal; font-variant-position: normal; font-variant-emoji: normal; vertical-align: baseline; white-space-collapse: preserve;&quot;&gt;Does the patient demonstrate understanding?&lt;/span&gt;&lt;/span&gt;" style="rhombus;whiteSpace=wrap;html=1;rounded=1;" parent="JZwYUCtv63FYpOucSwEM-2" vertex="1">
          <mxGeometry x="727.5" y="30" width="162.5" height="140" as="geometry" />
        </mxCell>
        <mxCell id="JZwYUCtv63FYpOucSwEM-17" value="&lt;span id=&quot;docs-internal-guid-9bdba0b6-7fff-d507-296b-a999c20051e1&quot;&gt;&lt;span style=&quot;font-size: 12pt; font-family: Calibri, sans-serif; background-color: transparent; font-variant-numeric: normal; font-variant-east-asian: normal; font-variant-alternates: normal; font-variant-position: normal; font-variant-emoji: normal; vertical-align: baseline; white-space-collapse: preserve;&quot;&gt;Provide additional clarification or education.&lt;/span&gt;&lt;/span&gt;" style="whiteSpace=wrap;html=1;rounded=1;" parent="JZwYUCtv63FYpOucSwEM-2" vertex="1">
          <mxGeometry x="748.75" y="260" width="120" height="70" as="geometry" />
        </mxCell>
        <mxCell id="JZwYUCtv63FYpOucSwEM-19" value="" style="edgeStyle=orthogonalEdgeStyle;rounded=0;orthogonalLoop=1;jettySize=auto;html=1;" parent="JZwYUCtv63FYpOucSwEM-2" source="JZwYUCtv63FYpOucSwEM-15" edge="1">
          <mxGeometry relative="1" as="geometry">
            <mxPoint x="970" y="100" as="targetPoint" />
          </mxGeometry>
        </mxCell>
        <mxCell id="JZwYUCtv63FYpOucSwEM-20" value="yes&lt;div&gt;&lt;br&gt;&lt;/div&gt;" style="edgeLabel;html=1;align=center;verticalAlign=middle;resizable=0;points=[];" parent="JZwYUCtv63FYpOucSwEM-19" vertex="1" connectable="0">
          <mxGeometry x="-0.2294" y="-6" relative="1" as="geometry">
            <mxPoint as="offset" />
          </mxGeometry>
        </mxCell>
        <mxCell id="JZwYUCtv63FYpOucSwEM-21" value="Yes" style="edgeLabel;html=1;align=center;verticalAlign=middle;resizable=0;points=[];" parent="JZwYUCtv63FYpOucSwEM-19" vertex="1" connectable="0">
          <mxGeometry x="-0.3132" y="-2" relative="1" as="geometry">
            <mxPoint as="offset" />
          </mxGeometry>
        </mxCell>
        <mxCell id="M3DvsQjcnXZhg1kcUXWH-1" value="" style="points=[[0.145,0.145,0],[0.5,0,0],[0.855,0.145,0],[1,0.5,0],[0.855,0.855,0],[0.5,1,0],[0.145,0.855,0],[0,0.5,0]];shape=mxgraph.bpmn.event;html=1;verticalLabelPosition=bottom;labelBackgroundColor=#ffffff;verticalAlign=top;align=center;perimeter=ellipsePerimeter;outlineConnect=0;aspect=fixed;outline=catching;symbol=link;" parent="JZwYUCtv63FYpOucSwEM-2" vertex="1">
          <mxGeometry x="40" y="75" width="50" height="50" as="geometry" />
        </mxCell>
        <mxCell id="WU3cmHpLzO6sQwDwW-KA-4" value="&lt;span style=&quot;text-align: left; font-family: Calibri, sans-serif; font-size: 16px; font-weight: 700; white-space-collapse: preserve;&quot;&gt;E. Medication &lt;/span&gt;&lt;div style=&quot;text-align: left; text-wrap-mode: nowrap;&quot;&gt;&lt;span style=&quot;font-family: Calibri, sans-serif; font-size: 16px; font-weight: 700; white-space: pre-wrap;&quot;&gt;Preparation &lt;/span&gt;&lt;/div&gt;&lt;div style=&quot;text-align: left; text-wrap-mode: nowrap;&quot;&gt;&lt;span style=&quot;font-family: Calibri, sans-serif; font-size: 16px; font-weight: 700; white-space: pre-wrap;&quot;&gt;and Dispensing&lt;/span&gt;&lt;/div&gt;" style="text;html=1;align=center;verticalAlign=middle;whiteSpace=wrap;rounded=0;" parent="JZwYUCtv63FYpOucSwEM-2" vertex="1">
          <mxGeometry x="17.5" y="130" width="140" height="80" as="geometry" />
        </mxCell>
        <mxCell id="_Z2M9cx-iRhE6JNU8CoT-9" style="edgeStyle=orthogonalEdgeStyle;rounded=0;orthogonalLoop=1;jettySize=auto;html=1;exitX=0;exitY=0.5;exitDx=0;exitDy=0;entryX=0.438;entryY=1.011;entryDx=0;entryDy=0;entryPerimeter=0;" parent="JZwYUCtv63FYpOucSwEM-2" source="JZwYUCtv63FYpOucSwEM-17" target="JZwYUCtv63FYpOucSwEM-7" edge="1">
          <mxGeometry relative="1" as="geometry" />
        </mxCell>
        <mxCell id="_Z2M9cx-iRhE6JNU8CoT-10" value="" style="points=[[0.145,0.145,0],[0.5,0,0],[0.855,0.145,0],[1,0.5,0],[0.855,0.855,0],[0.5,1,0],[0.145,0.855,0],[0,0.5,0]];shape=mxgraph.bpmn.event;html=1;verticalLabelPosition=bottom;labelBackgroundColor=#ffffff;verticalAlign=top;align=center;perimeter=ellipsePerimeter;outlineConnect=0;aspect=fixed;outline=throwing;symbol=link;" parent="JZwYUCtv63FYpOucSwEM-2" vertex="1">
          <mxGeometry x="971" y="75" width="50" height="50" as="geometry" />
        </mxCell>
        <mxCell id="_Z2M9cx-iRhE6JNU8CoT-16" value="&lt;b style=&quot;background-color: transparent; color: light-dark(rgb(0, 0, 0), rgb(255, 255, 255)); white-space-collapse: preserve; font-family: Calibri, sans-serif; font-size: 16px;&quot;&gt;H. Medication Follow-up and Monitoring.&lt;/b&gt;" style="text;strokeColor=none;align=left;fillColor=none;html=1;verticalAlign=middle;whiteSpace=wrap;rounded=0;" parent="JZwYUCtv63FYpOucSwEM-2" vertex="1">
          <mxGeometry x="971" y="125" width="109" height="110" as="geometry" />
        </mxCell>
      </root>
    </mxGraphModel>
  </diagram>
  <diagram id="8eL0lT8CZ018MUdI4OAK" name="Medication Follow-up and Monitoring">
    <mxGraphModel dx="1182" dy="701" grid="1" gridSize="10" guides="1" tooltips="1" connect="1" arrows="1" fold="1" page="1" pageScale="1" pageWidth="827" pageHeight="1169" math="0" shadow="0">
      <root>
        <mxCell id="0" />
        <mxCell id="1" parent="0" />
        <mxCell id="fWKJBdZySvvjlmzI6aoA-1" value="&lt;span id=&quot;docs-internal-guid-d641ba4c-7fff-4d14-ce45-43abf16523a4&quot; style=&quot;font-weight:normal;&quot;&gt;&lt;span style=&quot;font-size: 12pt; font-family: Calibri, sans-serif; background-color: transparent; font-weight: 700; font-variant-numeric: normal; font-variant-east-asian: normal; font-variant-alternates: normal; font-variant-position: normal; font-variant-emoji: normal; vertical-align: baseline; white-space-collapse: preserve;&quot;&gt;H: Medication Follow-up and Monitoring&lt;/span&gt;&lt;/span&gt;" style="swimlane;html=1;childLayout=stackLayout;resizeParent=1;resizeParentMax=0;horizontal=1;startSize=20;horizontalStack=0;whiteSpace=wrap;" parent="1" vertex="1">
          <mxGeometry x="130" y="180" width="1250" height="510" as="geometry" />
        </mxCell>
        <mxCell id="fWKJBdZySvvjlmzI6aoA-2" value="Pharmacy" style="swimlane;html=1;startSize=20;horizontal=0;" parent="fWKJBdZySvvjlmzI6aoA-1" vertex="1">
          <mxGeometry y="20" width="1250" height="490" as="geometry" />
        </mxCell>
        <mxCell id="fWKJBdZySvvjlmzI6aoA-3" value="" style="edgeStyle=orthogonalEdgeStyle;rounded=0;orthogonalLoop=1;jettySize=auto;html=1;" parent="fWKJBdZySvvjlmzI6aoA-2" target="fWKJBdZySvvjlmzI6aoA-7" edge="1">
          <mxGeometry relative="1" as="geometry">
            <mxPoint x="90" y="215" as="sourcePoint" />
          </mxGeometry>
        </mxCell>
        <mxCell id="fWKJBdZySvvjlmzI6aoA-6" value="" style="edgeStyle=orthogonalEdgeStyle;rounded=0;orthogonalLoop=1;jettySize=auto;html=1;" parent="fWKJBdZySvvjlmzI6aoA-2" source="fWKJBdZySvvjlmzI6aoA-7" target="fWKJBdZySvvjlmzI6aoA-9" edge="1">
          <mxGeometry relative="1" as="geometry" />
        </mxCell>
        <mxCell id="fWKJBdZySvvjlmzI6aoA-7" value="&lt;span id=&quot;docs-internal-guid-d974e326-7fff-8c5d-fcd9-50d60d140305&quot;&gt;&lt;span style=&quot;font-size: 12pt; font-family: Calibri, sans-serif; background-color: transparent; font-variant-numeric: normal; font-variant-east-asian: normal; font-variant-alternates: normal; font-variant-position: normal; font-variant-emoji: normal; vertical-align: baseline; white-space-collapse: preserve;&quot;&gt;Schedule follow-up appointments.&lt;/span&gt;&lt;/span&gt;" style="rounded=1;whiteSpace=wrap;html=1;" parent="fWKJBdZySvvjlmzI6aoA-2" vertex="1">
          <mxGeometry x="135" y="185" width="120" height="60" as="geometry" />
        </mxCell>
        <mxCell id="fWKJBdZySvvjlmzI6aoA-8" value="" style="edgeStyle=orthogonalEdgeStyle;rounded=0;orthogonalLoop=1;jettySize=auto;html=1;" parent="fWKJBdZySvvjlmzI6aoA-2" source="fWKJBdZySvvjlmzI6aoA-9" target="fWKJBdZySvvjlmzI6aoA-11" edge="1">
          <mxGeometry relative="1" as="geometry" />
        </mxCell>
        <mxCell id="fWKJBdZySvvjlmzI6aoA-9" value="&lt;span id=&quot;docs-internal-guid-035b7f58-7fff-b254-ee53-336e7ac7f6d8&quot;&gt;&lt;span style=&quot;font-size: 12pt; font-family: Calibri, sans-serif; background-color: transparent; font-variant-numeric: normal; font-variant-east-asian: normal; font-variant-alternates: normal; font-variant-position: normal; font-variant-emoji: normal; vertical-align: baseline; white-space-collapse: preserve;&quot;&gt;Assess medication adherence.&lt;/span&gt;&lt;/span&gt;" style="whiteSpace=wrap;html=1;rounded=1;" parent="fWKJBdZySvvjlmzI6aoA-2" vertex="1">
          <mxGeometry x="340" y="180" width="120" height="70" as="geometry" />
        </mxCell>
        <mxCell id="fWKJBdZySvvjlmzI6aoA-10" value="" style="edgeStyle=orthogonalEdgeStyle;rounded=0;orthogonalLoop=1;jettySize=auto;html=1;" parent="fWKJBdZySvvjlmzI6aoA-2" source="fWKJBdZySvvjlmzI6aoA-11" target="fWKJBdZySvvjlmzI6aoA-14" edge="1">
          <mxGeometry relative="1" as="geometry" />
        </mxCell>
        <mxCell id="fWKJBdZySvvjlmzI6aoA-11" value="&lt;span id=&quot;docs-internal-guid-54418d6c-7fff-e359-54ce-6e00b187217d&quot;&gt;&lt;span style=&quot;font-size: 12pt; font-family: Calibri, sans-serif; background-color: transparent; font-variant-numeric: normal; font-variant-east-asian: normal; font-variant-alternates: normal; font-variant-position: normal; font-variant-emoji: normal; vertical-align: baseline; white-space-collapse: preserve;&quot;&gt;Monitor for side effects or complications.&lt;/span&gt;&lt;/span&gt;" style="whiteSpace=wrap;html=1;rounded=1;" parent="fWKJBdZySvvjlmzI6aoA-2" vertex="1">
          <mxGeometry x="560" y="185" width="120" height="60" as="geometry" />
        </mxCell>
        <mxCell id="fWKJBdZySvvjlmzI6aoA-12" value="" style="edgeStyle=orthogonalEdgeStyle;rounded=0;orthogonalLoop=1;jettySize=auto;html=1;" parent="fWKJBdZySvvjlmzI6aoA-2" source="fWKJBdZySvvjlmzI6aoA-14" target="fWKJBdZySvvjlmzI6aoA-17" edge="1">
          <mxGeometry relative="1" as="geometry" />
        </mxCell>
        <mxCell id="fWKJBdZySvvjlmzI6aoA-13" value="no" style="edgeLabel;html=1;align=center;verticalAlign=middle;resizable=0;points=[];" parent="fWKJBdZySvvjlmzI6aoA-12" vertex="1" connectable="0">
          <mxGeometry x="-0.0812" y="2" relative="1" as="geometry">
            <mxPoint as="offset" />
          </mxGeometry>
        </mxCell>
        <mxCell id="jU-odJzjQ1iQ6h_LRcG6-8" style="edgeStyle=orthogonalEdgeStyle;rounded=0;orthogonalLoop=1;jettySize=auto;html=1;exitX=0.5;exitY=1;exitDx=0;exitDy=0;entryX=0.5;entryY=0;entryDx=0;entryDy=0;" parent="fWKJBdZySvvjlmzI6aoA-2" source="fWKJBdZySvvjlmzI6aoA-14" target="jU-odJzjQ1iQ6h_LRcG6-6" edge="1">
          <mxGeometry relative="1" as="geometry" />
        </mxCell>
        <mxCell id="jU-odJzjQ1iQ6h_LRcG6-10" value="yes" style="edgeLabel;html=1;align=center;verticalAlign=middle;resizable=0;points=[];" parent="jU-odJzjQ1iQ6h_LRcG6-8" vertex="1" connectable="0">
          <mxGeometry x="-0.4214" relative="1" as="geometry">
            <mxPoint as="offset" />
          </mxGeometry>
        </mxCell>
        <mxCell id="fWKJBdZySvvjlmzI6aoA-14" value="&lt;span id=&quot;docs-internal-guid-75815163-7fff-415f-32d5-560f88ad3fc2&quot;&gt;&lt;span style=&quot;font-size: 12pt; font-family: Calibri, sans-serif; background-color: transparent; font-variant-numeric: normal; font-variant-east-asian: normal; font-variant-alternates: normal; font-variant-position: normal; font-variant-emoji: normal; vertical-align: baseline; white-space-collapse: preserve;&quot;&gt;Is follow-up necessary?&lt;/span&gt;&lt;/span&gt;" style="rhombus;whiteSpace=wrap;html=1;rounded=1;" parent="fWKJBdZySvvjlmzI6aoA-2" vertex="1">
          <mxGeometry x="750" y="150" width="112.5" height="130" as="geometry" />
        </mxCell>
        <mxCell id="jU-odJzjQ1iQ6h_LRcG6-15" value="" style="edgeStyle=orthogonalEdgeStyle;rounded=0;orthogonalLoop=1;jettySize=auto;html=1;" parent="fWKJBdZySvvjlmzI6aoA-2" source="fWKJBdZySvvjlmzI6aoA-17" edge="1">
          <mxGeometry relative="1" as="geometry">
            <mxPoint x="1170" y="215" as="targetPoint" />
          </mxGeometry>
        </mxCell>
        <mxCell id="fWKJBdZySvvjlmzI6aoA-17" value="&lt;span id=&quot;docs-internal-guid-fc607d00-7fff-a7d9-63cb-0beb6f729cd4&quot;&gt;&lt;span style=&quot;font-size: 12pt; font-family: Calibri, sans-serif; background-color: transparent; font-variant-numeric: normal; font-variant-east-asian: normal; font-variant-alternates: normal; font-variant-position: normal; font-variant-emoji: normal; vertical-align: baseline; white-space-collapse: preserve;&quot;&gt;Conclude the process.&lt;/span&gt;&lt;/span&gt;" style="whiteSpace=wrap;html=1;rounded=1;" parent="fWKJBdZySvvjlmzI6aoA-2" vertex="1">
          <mxGeometry x="950" y="180" width="120" height="70" as="geometry" />
        </mxCell>
        <mxCell id="PBUKTs7Wc80vb1CgSLLC-1" value="&lt;span style=&quot;font-family: Calibri, sans-serif; font-size: 16px; font-weight: 700; white-space-collapse: preserve;&quot;&gt;G: Patient &lt;/span&gt;&lt;div&gt;&lt;div style=&quot;&quot;&gt;&lt;span style=&quot;font-family: Calibri, sans-serif; font-size: 16px; font-weight: 700; white-space-collapse: preserve; background-color: transparent; color: light-dark(rgb(0, 0, 0), rgb(255, 255, 255));&quot;&gt;Counseling&lt;/span&gt;&lt;/div&gt;&lt;div&gt;&lt;span style=&quot;font-family: Calibri, sans-serif; font-size: 16px; font-weight: 700; white-space-collapse: preserve;&quot;&gt; and Education&lt;/span&gt;&lt;/div&gt;&lt;/div&gt;" style="text;html=1;align=left;verticalAlign=middle;whiteSpace=wrap;rounded=0;" parent="fWKJBdZySvvjlmzI6aoA-2" vertex="1">
          <mxGeometry x="25" y="230" width="130" height="180" as="geometry" />
        </mxCell>
        <mxCell id="PBUKTs7Wc80vb1CgSLLC-3" value="" style="points=[[0.145,0.145,0],[0.5,0,0],[0.855,0.145,0],[1,0.5,0],[0.855,0.855,0],[0.5,1,0],[0.145,0.855,0],[0,0.5,0]];shape=mxgraph.bpmn.event;html=1;verticalLabelPosition=bottom;labelBackgroundColor=#ffffff;verticalAlign=top;align=center;perimeter=ellipsePerimeter;outlineConnect=0;aspect=fixed;outline=catching;symbol=link;" parent="fWKJBdZySvvjlmzI6aoA-2" vertex="1">
          <mxGeometry x="40" y="190" width="50" height="50" as="geometry" />
        </mxCell>
        <mxCell id="1PMay_poQMVjhwj0CgNZ-1" value="&lt;b&gt;&lt;font style=&quot;font-size: 14px;&quot;&gt;F. Medication Delivery&lt;/font&gt;&lt;/b&gt;" style="text;html=1;align=left;verticalAlign=middle;whiteSpace=wrap;rounded=0;" parent="fWKJBdZySvvjlmzI6aoA-2" vertex="1">
          <mxGeometry x="30" y="200" width="120" height="130" as="geometry" />
        </mxCell>
        <mxCell id="jU-odJzjQ1iQ6h_LRcG6-9" style="edgeStyle=orthogonalEdgeStyle;rounded=0;orthogonalLoop=1;jettySize=auto;html=1;exitX=0;exitY=0.5;exitDx=0;exitDy=0;" parent="fWKJBdZySvvjlmzI6aoA-2" source="jU-odJzjQ1iQ6h_LRcG6-6" target="fWKJBdZySvvjlmzI6aoA-11" edge="1">
          <mxGeometry relative="1" as="geometry" />
        </mxCell>
        <mxCell id="jU-odJzjQ1iQ6h_LRcG6-6" value="Continue monitoring" style="rounded=1;whiteSpace=wrap;html=1;" parent="fWKJBdZySvvjlmzI6aoA-2" vertex="1">
          <mxGeometry x="746.25" y="350" width="120" height="60" as="geometry" />
        </mxCell>
        <mxCell id="jU-odJzjQ1iQ6h_LRcG6-16" value="" style="points=[[0.145,0.145,0],[0.5,0,0],[0.855,0.145,0],[1,0.5,0],[0.855,0.855,0],[0.5,1,0],[0.145,0.855,0],[0,0.5,0]];shape=mxgraph.bpmn.event;html=1;verticalLabelPosition=bottom;labelBackgroundColor=#ffffff;verticalAlign=top;align=center;perimeter=ellipsePerimeter;outlineConnect=0;aspect=fixed;outline=standard;symbol=general;strokeWidth=5;" parent="fWKJBdZySvvjlmzI6aoA-2" vertex="1">
          <mxGeometry x="1171" y="190" width="50" height="50" as="geometry" />
        </mxCell>
        <mxCell id="jU-odJzjQ1iQ6h_LRcG6-17" value="End" style="text;html=1;align=center;verticalAlign=middle;resizable=0;points=[];autosize=1;strokeColor=none;fillColor=none;" parent="fWKJBdZySvvjlmzI6aoA-2" vertex="1">
          <mxGeometry x="1176" y="270" width="40" height="30" as="geometry" />
        </mxCell>
      </root>
    </mxGraphModel>
  </diagram>
  <diagram id="o5iGeuSgvluay9yctBCs" name="Record Keeping and Compliance">
    <mxGraphModel dx="2263" dy="851" grid="1" gridSize="10" guides="1" tooltips="1" connect="1" arrows="1" fold="1" page="1" pageScale="1" pageWidth="827" pageHeight="1169" math="0" shadow="0">
      <root>
        <mxCell id="0" />
        <mxCell id="1" parent="0" />
        <mxCell id="NCJ4eZowFAB3GH3WaE4R-1" value="&lt;span id=&quot;docs-internal-guid-7a90dcd0-7fff-5302-d38d-6be18487de74&quot; style=&quot;font-weight:normal;&quot;&gt;&lt;span style=&quot;font-size: 12pt; font-family: Calibri, sans-serif; background-color: transparent; font-weight: 700; font-variant-numeric: normal; font-variant-east-asian: normal; font-variant-alternates: normal; font-variant-position: normal; font-variant-emoji: normal; vertical-align: baseline; white-space-collapse: preserve;&quot;&gt;I: Record Keeping and Compliance&lt;/span&gt;&lt;/span&gt;" style="swimlane;html=1;childLayout=stackLayout;resizeParent=1;resizeParentMax=0;horizontal=1;startSize=20;horizontalStack=0;whiteSpace=wrap;" parent="1" vertex="1">
          <mxGeometry x="-340" y="200" width="1190" height="525" as="geometry" />
        </mxCell>
        <mxCell id="NCJ4eZowFAB3GH3WaE4R-2" value="IT Support Staff" style="swimlane;html=1;startSize=20;horizontal=0;" parent="NCJ4eZowFAB3GH3WaE4R-1" vertex="1">
          <mxGeometry y="20" width="1190" height="505" as="geometry" />
        </mxCell>
        <mxCell id="NCJ4eZowFAB3GH3WaE4R-3" value="" style="edgeStyle=orthogonalEdgeStyle;rounded=0;orthogonalLoop=1;jettySize=auto;html=1;" parent="NCJ4eZowFAB3GH3WaE4R-2" source="NCJ4eZowFAB3GH3WaE4R-4" target="NCJ4eZowFAB3GH3WaE4R-7" edge="1">
          <mxGeometry relative="1" as="geometry" />
        </mxCell>
        <mxCell id="NCJ4eZowFAB3GH3WaE4R-4" value="" style="ellipse;whiteSpace=wrap;html=1;aspect=fixed;" parent="NCJ4eZowFAB3GH3WaE4R-2" vertex="1">
          <mxGeometry x="40" y="190" width="50" height="50" as="geometry" />
        </mxCell>
        <mxCell id="NCJ4eZowFAB3GH3WaE4R-5" value="Start&lt;div&gt;&lt;br&gt;&lt;/div&gt;" style="text;html=1;align=center;verticalAlign=middle;whiteSpace=wrap;rounded=0;" parent="NCJ4eZowFAB3GH3WaE4R-2" vertex="1">
          <mxGeometry x="35" y="280" width="60" height="30" as="geometry" />
        </mxCell>
        <mxCell id="NCJ4eZowFAB3GH3WaE4R-6" value="" style="edgeStyle=orthogonalEdgeStyle;rounded=0;orthogonalLoop=1;jettySize=auto;html=1;" parent="NCJ4eZowFAB3GH3WaE4R-2" source="NCJ4eZowFAB3GH3WaE4R-7" target="NCJ4eZowFAB3GH3WaE4R-9" edge="1">
          <mxGeometry relative="1" as="geometry" />
        </mxCell>
        <mxCell id="NCJ4eZowFAB3GH3WaE4R-7" value="&lt;span id=&quot;docs-internal-guid-31e65722-7fff-24f6-467f-fb6aff7f2b1e&quot;&gt;&lt;span style=&quot;font-size: 12pt; font-family: Calibri, sans-serif; background-color: transparent; font-variant-numeric: normal; font-variant-east-asian: normal; font-variant-alternates: normal; font-variant-position: normal; font-variant-emoji: normal; vertical-align: baseline; white-space-collapse: preserve;&quot;&gt;Maintain accurate patient records.&lt;/span&gt;&lt;/span&gt;" style="rounded=1;whiteSpace=wrap;html=1;" parent="NCJ4eZowFAB3GH3WaE4R-2" vertex="1">
          <mxGeometry x="135" y="185" width="120" height="60" as="geometry" />
        </mxCell>
        <mxCell id="NCJ4eZowFAB3GH3WaE4R-8" value="" style="edgeStyle=orthogonalEdgeStyle;rounded=0;orthogonalLoop=1;jettySize=auto;html=1;" parent="NCJ4eZowFAB3GH3WaE4R-2" source="NCJ4eZowFAB3GH3WaE4R-9" target="NCJ4eZowFAB3GH3WaE4R-11" edge="1">
          <mxGeometry relative="1" as="geometry" />
        </mxCell>
        <mxCell id="NCJ4eZowFAB3GH3WaE4R-9" value="&lt;span id=&quot;docs-internal-guid-18e569e7-7fff-6d8e-9651-7ea4020a2dea&quot;&gt;&lt;span style=&quot;font-size: 12pt; font-family: Calibri, sans-serif; background-color: transparent; font-variant-numeric: normal; font-variant-east-asian: normal; font-variant-alternates: normal; font-variant-position: normal; font-variant-emoji: normal; vertical-align: baseline; white-space-collapse: preserve;&quot;&gt;Ensure regulatory compliance.&lt;/span&gt;&lt;/span&gt;" style="whiteSpace=wrap;html=1;rounded=1;" parent="NCJ4eZowFAB3GH3WaE4R-2" vertex="1">
          <mxGeometry x="340" y="180" width="120" height="70" as="geometry" />
        </mxCell>
        <mxCell id="NCJ4eZowFAB3GH3WaE4R-10" value="" style="edgeStyle=orthogonalEdgeStyle;rounded=0;orthogonalLoop=1;jettySize=auto;html=1;" parent="NCJ4eZowFAB3GH3WaE4R-2" source="NCJ4eZowFAB3GH3WaE4R-11" target="NCJ4eZowFAB3GH3WaE4R-16" edge="1">
          <mxGeometry relative="1" as="geometry" />
        </mxCell>
        <mxCell id="NCJ4eZowFAB3GH3WaE4R-11" value="&lt;span id=&quot;docs-internal-guid-44b33a29-7fff-a161-6d3e-617ced272634&quot;&gt;&lt;span style=&quot;font-size: 12pt; font-family: Calibri, sans-serif; background-color: transparent; font-variant-numeric: normal; font-variant-east-asian: normal; font-variant-alternates: normal; font-variant-position: normal; font-variant-emoji: normal; vertical-align: baseline; white-space-collapse: preserve;&quot;&gt;Conduct internal audits.&lt;/span&gt;&lt;/span&gt;" style="whiteSpace=wrap;html=1;rounded=1;" parent="NCJ4eZowFAB3GH3WaE4R-2" vertex="1">
          <mxGeometry x="560" y="185" width="120" height="60" as="geometry" />
        </mxCell>
        <mxCell id="NCJ4eZowFAB3GH3WaE4R-12" value="" style="edgeStyle=orthogonalEdgeStyle;rounded=0;orthogonalLoop=1;jettySize=auto;html=1;" parent="NCJ4eZowFAB3GH3WaE4R-2" source="NCJ4eZowFAB3GH3WaE4R-16" target="NCJ4eZowFAB3GH3WaE4R-18" edge="1">
          <mxGeometry relative="1" as="geometry" />
        </mxCell>
        <mxCell id="NCJ4eZowFAB3GH3WaE4R-13" value="no" style="edgeLabel;html=1;align=center;verticalAlign=middle;resizable=0;points=[];" parent="NCJ4eZowFAB3GH3WaE4R-12" vertex="1" connectable="0">
          <mxGeometry x="-0.0812" y="2" relative="1" as="geometry">
            <mxPoint as="offset" />
          </mxGeometry>
        </mxCell>
        <mxCell id="NCJ4eZowFAB3GH3WaE4R-21" value="yes" style="edgeLabel;html=1;align=center;verticalAlign=middle;resizable=0;points=[];" parent="NCJ4eZowFAB3GH3WaE4R-12" vertex="1" connectable="0">
          <mxGeometry x="-0.0659" relative="1" as="geometry">
            <mxPoint x="-1" as="offset" />
          </mxGeometry>
        </mxCell>
        <mxCell id="NCJ4eZowFAB3GH3WaE4R-26" value="" style="edgeStyle=orthogonalEdgeStyle;rounded=0;orthogonalLoop=1;jettySize=auto;html=1;" parent="NCJ4eZowFAB3GH3WaE4R-2" source="NCJ4eZowFAB3GH3WaE4R-16" target="NCJ4eZowFAB3GH3WaE4R-25" edge="1">
          <mxGeometry relative="1" as="geometry">
            <Array as="points">
              <mxPoint x="800" y="390" />
            </Array>
          </mxGeometry>
        </mxCell>
        <mxCell id="NCJ4eZowFAB3GH3WaE4R-28" value="no" style="edgeLabel;html=1;align=center;verticalAlign=middle;resizable=0;points=[];" parent="NCJ4eZowFAB3GH3WaE4R-26" vertex="1" connectable="0">
          <mxGeometry x="-0.5826" y="2" relative="1" as="geometry">
            <mxPoint y="-1" as="offset" />
          </mxGeometry>
        </mxCell>
        <mxCell id="NCJ4eZowFAB3GH3WaE4R-16" value="&lt;span id=&quot;docs-internal-guid-5afc4294-7fff-cdb8-b333-3f14224e8e40&quot;&gt;&lt;span style=&quot;font-size: 12pt; font-family: Calibri, sans-serif; background-color: transparent; font-variant-numeric: normal; font-variant-east-asian: normal; font-variant-alternates: normal; font-variant-position: normal; font-variant-emoji: normal; vertical-align: baseline; white-space-collapse: preserve;&quot;&gt;Are the records complete and compliant?&lt;/span&gt;&lt;/span&gt;" style="rhombus;whiteSpace=wrap;html=1;rounded=1;" parent="NCJ4eZowFAB3GH3WaE4R-2" vertex="1">
          <mxGeometry x="730" y="125" width="140" height="180" as="geometry" />
        </mxCell>
        <mxCell id="NCJ4eZowFAB3GH3WaE4R-17" value="" style="ellipse;whiteSpace=wrap;html=1;rounded=1;strokeWidth=5;" parent="NCJ4eZowFAB3GH3WaE4R-2" vertex="1">
          <mxGeometry x="1132.5" y="190" width="50" height="50" as="geometry" />
        </mxCell>
        <mxCell id="NCJ4eZowFAB3GH3WaE4R-18" value="&lt;span id=&quot;docs-internal-guid-755d6fb8-7fff-636a-31fd-6195d2485122&quot;&gt;&lt;span style=&quot;font-size: 12pt; font-family: Calibri, sans-serif; background-color: transparent; font-variant-numeric: normal; font-variant-east-asian: normal; font-variant-alternates: normal; font-variant-position: normal; font-variant-emoji: normal; vertical-align: baseline; white-space-collapse: preserve;&quot;&gt;Archive the records.&lt;/span&gt;&lt;/span&gt;" style="whiteSpace=wrap;html=1;rounded=1;" parent="NCJ4eZowFAB3GH3WaE4R-2" vertex="1">
          <mxGeometry x="950" y="180" width="120" height="70" as="geometry" />
        </mxCell>
        <mxCell id="NCJ4eZowFAB3GH3WaE4R-19" value="" style="edgeStyle=orthogonalEdgeStyle;rounded=0;orthogonalLoop=1;jettySize=auto;html=1;exitX=1;exitY=0.5;exitDx=0;exitDy=0;" parent="NCJ4eZowFAB3GH3WaE4R-2" source="NCJ4eZowFAB3GH3WaE4R-18" target="NCJ4eZowFAB3GH3WaE4R-17" edge="1">
          <mxGeometry relative="1" as="geometry">
            <mxPoint x="1090" y="215" as="sourcePoint" />
          </mxGeometry>
        </mxCell>
        <mxCell id="NCJ4eZowFAB3GH3WaE4R-20" value="End" style="text;html=1;align=center;verticalAlign=middle;resizable=0;points=[];autosize=1;strokeColor=none;fillColor=none;" parent="NCJ4eZowFAB3GH3WaE4R-2" vertex="1">
          <mxGeometry x="1132.5" y="263" width="40" height="30" as="geometry" />
        </mxCell>
        <mxCell id="NCJ4eZowFAB3GH3WaE4R-29" style="edgeStyle=orthogonalEdgeStyle;rounded=0;orthogonalLoop=1;jettySize=auto;html=1;exitX=0.5;exitY=0;exitDx=0;exitDy=0;entryX=0.5;entryY=1;entryDx=0;entryDy=0;" parent="NCJ4eZowFAB3GH3WaE4R-2" source="NCJ4eZowFAB3GH3WaE4R-25" target="NCJ4eZowFAB3GH3WaE4R-11" edge="1">
          <mxGeometry relative="1" as="geometry" />
        </mxCell>
        <mxCell id="NCJ4eZowFAB3GH3WaE4R-25" value="&lt;span id=&quot;docs-internal-guid-46d131ca-7fff-46ab-bf0c-4ff4cff3cdd8&quot;&gt;&lt;span style=&quot;font-size: 12pt; font-family: Calibri, sans-serif; background-color: transparent; font-variant-numeric: normal; font-variant-east-asian: normal; font-variant-alternates: normal; font-variant-position: normal; font-variant-emoji: normal; vertical-align: baseline; white-space-collapse: preserve;&quot;&gt;Address gaps and repeat the audit.&lt;/span&gt;&lt;/span&gt;" style="whiteSpace=wrap;html=1;rounded=1;" parent="NCJ4eZowFAB3GH3WaE4R-2" vertex="1">
          <mxGeometry x="560" y="340" width="120" height="80" as="geometry" />
        </mxCell>
      </root>
    </mxGraphModel>
  </diagram>
  <diagram id="xvfXCJU8wNhpi5BGmd7k" name="Self-Registration">
    <mxGraphModel dx="1426" dy="824" grid="1" gridSize="10" guides="1" tooltips="1" connect="1" arrows="1" fold="1" page="1" pageScale="1" pageWidth="1654" pageHeight="1169" math="0" shadow="0">
      <root>
        <mxCell id="0" />
        <mxCell id="1" parent="0" />
      </root>
    </mxGraphModel>
  </diagram>
  <diagram id="SlqPSIvhosOUGlykXlYc" name="Order Refill ">
    <mxGraphModel dx="1426" dy="824" grid="1" gridSize="10" guides="1" tooltips="1" connect="1" arrows="1" fold="1" page="1" pageScale="1" pageWidth="1654" pageHeight="1169" math="0" shadow="0">
      <root>
        <mxCell id="0" />
        <mxCell id="1" parent="0" />
      </root>
    </mxGraphModel>
  </diagram>
</mxfile>
